<?xml version="1.0" encoding="UTF-8" standalone="no"?>
<svg
   xmlns:dc="http://purl.org/dc/elements/1.1/"
   xmlns:cc="http://creativecommons.org/ns#"
   xmlns:rdf="http://www.w3.org/1999/02/22-rdf-syntax-ns#"
   xmlns:svg="http://www.w3.org/2000/svg"
   xmlns="http://www.w3.org/2000/svg"
   xml:space="preserve"
   style="enable-background:new 0 0 640 219;"
   viewBox="0 0 640 219"
   y="0px"
   x="0px"
   id="Warstwa_1"
   version="1.1"><metadata
   id="metadata19"><rdf:RDF><cc:Work
       rdf:about=""><dc:format>image/svg+xml</dc:format><dc:type
         rdf:resource="http://purl.org/dc/dcmitype/StillImage" /><dc:title></dc:title></cc:Work></rdf:RDF></metadata><defs
   id="defs17" />
<style
   id="style2"
   type="text/css">
	.st0{fill:#FFFFFF;}
</style>
<g
   style="fill:#ffffff"
   id="g12">
	<path
   style="fill:#ffffff"
   id="path4"
   d="M144.7,138.3l-1.9,0.7c0,0.2,0.2,0.4,0.5,0.8c0.3,0.4,0.5,0.6,0.5,0.7h-0.9l-1.5-2.2l-4,0.7v3.5l-2.2,0.9   l1.1,2.9h2.1v2.7l3.3-4.3l1.3,1.6l-1.8,2.8l2.2,5.8c-1.8,2.3-2.7,5.6-2.8,10.2l-1.6-6.7l-2,2.7l0.9,5.6l-0.5,0.6h3.2l-0.9,1.6   l2,3.5l-2.7-4.2l-6.4,4.2l3.4,3.2l-2.5,3.5l2.2,3.7l-1.6,2.9l-3.5,0.5l3.5,4.2l-4,4.2l3.4,4.9v1.5H109l-1.2-1.5   c-3.3,2.5-8.1,3.7-14.1,3.7c-7.2,0-14.5-1.6-21.7-4.9c-7.5-3.4-12.3-7.6-14.5-12.4l2.2-3.7l-1.2-0.7c-2.3,1.6-3.6,6-4,13.1l3.6-2.5   l0.3,2.5l-1.5,3.7c-1.2,0.4-2.5,0.6-3.9,0.6c-3.3,0-7-1.4-11-4.1c-3.2-2.5-6.4-5-9.6-7.6v-2.7l2.5,2.7l3.4-7.1l-2.5-2.8l-5.6,5.3   c-6.9-2.3-10.5-5.4-10.9-9.2l0.7-0.7l4,2.2l5.5-6.7l2.1,2.9l1.1-2.1l-3.3-4l0.6-1.5l-4.9-1.8l-1.1,4l-2.2-2.2l0.9-1.8L20,161   l-2.2,8.9l-4.9-4.2l1.8-7.9c-2.3-4.2-3.4-17-3.4-38.3c0-19.7,0.8-41.3,2.3-64.7c7.4-10,13-17.2,17.1-21.5C39.2,24.4,47,20,54.1,20   c2.6,0,5.2,0.6,7.6,1.9c2.2-1.5,5.1-2.2,8.8-2.2c1.5,0,3.4,0.1,5.8,0.4c2.8,0.3,4.6,0.5,5.4,0.5L80.8,24l0.9,0.5l6.7-3.9L85.7,24   c1.9,0.4,4.4,2.2,7.4,5.4l2.7-0.7L93,24.3l0.9,0.8l2-2.5l-1.2-1.8l3.4-0.5c0.7,1.4,1.1,3,1.1,4.8c0,1.2-0.2,2.9-0.7,5.3   s-0.7,4.1-0.7,5.3c0,0.9,0.1,1.8,0.3,2.6l3.3-4.2l1.5,2.7l0.7-2.7v6.1l-1.8-1.9l-3.7,4.1c2.1,1.4,5.1,3.7,9.1,7   c2.8-1.3,4.2-3.4,4.2-6.2c0-0.6-0.1-1.2-0.2-1.8l-3.4,2.7c1.2-2.2,3.9-3.8,7.8-4.9l2.2-2.5l2.2,0.5l-11-13.4l-1.2,0.5l-2.2-3.4   l0.5-0.5l3.4,3.9l0.8-3.4c3.4-0.5,6.1-0.8,8.1-0.8c4.7,0,7.5,1.2,8.4,3.7l-1.6,2.2l2.2,2l-3.7,3.7l-1.8-1.5l-1.8,2.9l8.2,1.1v2.7   l2.9,0.7l5-2.7v-2.2h1.2c0.6,8.7,1.2,17.4,1.9,26.2c0.7,10.4,1,19.1,0.8,26.2c-2.2,0.1-5.8,0.3-10.7,0.6c-5,0.4-8.7,0.5-11.2,0.5   c-14.2,0-21.4-5.8-21.4-17.3c0-1.9,0.2-3.9,0.5-6.1c-3-1.6-7.3-2.3-12.8-2.3c-9.7,0-14.5,2.7-14.5,8.1c0,0.9,0.2,1.8,0.5,2.8   l-1.8,0.3l1.8,5.4l-1.8,2.2l1.8,7.1L68,88.6c1.1,3.5,1.6,10.9,1.6,22.1c0,13.5-0.5,27.3-1.6,41.1c3.8,4.8,7.6,8.1,11.3,10l4.9-1.6   l1.5,1.6c5.4,0.1,9.1-3.7,11.2-11.4c1.2-5.9,2.5-11.9,3.7-17.9h38.3l1.6,2.2l3.3-2.2L144.7,138.3z M17.1,115v-0.2   c-1.2,0-1.8-0.4-1.8-1.2l-0.5,1.4C14.8,115,17.1,115,17.1,115z M17.1,165.8v-2.2c-0.5,0-0.8,0.4-0.9,1.1c-0.2,0.7-0.4,1.1-0.8,1.1   L17.1,165.8L17.1,165.8z M20.2,92.4l-1.6,2.2h0.9L20.2,92.4z M22.9,110.8l-2.7,1.1c0-3-0.5-4.6-1.6-4.9L22.9,110.8z M27.9,154.8   c-0.9,0-1.5-0.4-2-1.2c0.1-0.5,0.5-1.1,1.2-1.8l1.3,1.2l1.2-1.8c-1.2,0.4-2.5,0.8-3.7,1.2c-1.5,0.5-2.5,1.3-2.9,2.3h4.9V154.8z    M25.9,167.4l-2.2,2.7v-2.7H25.9z M32.6,147.2l-0.8-0.8l-0.5,2.7L32.6,147.2z M40.7,120.3c-0.9,0-2-0.7-3.2-2l0.5-0.2   c0-0.3,0.1-0.7,0.2-1.3h-4.7v4h-0.9v1.2h1.5v-1.2c1.2,0.9,1.9,2.3,1.9,4.2L40.7,120.3z M36.3,151.8l-0.4-0.6l-2.5,4l-0.9-0.5v1.3   L36.3,151.8z M39.2,172.5c-1.6,0.6-2.6,0.9-3.2,0.7c-0.2-0.1-1.1-0.7-2.6-2c0.4,0.4,0.8,0.6,1.3,0.6c0.4-0.2,0.9-0.3,1.4-0.5   C37.7,169.9,38.7,170.2,39.2,172.5z M40.2,138.3l-2,1.4c0.5,0.4,0.7,0.7,0.8,1.1c0,0.1-0.9,1.4-2.8,4l0.1,0.9   C37.9,144.2,39.2,141.7,40.2,138.3z M40.7,75.1l-1.4-1.5v1.5H40.7z M43.9,177.4l-3.3,1.8h1.8c1-1,1.5-2.4,1.5-4.2h-0.5L43.9,177.4z    M56.3,116.1l-1.8,1.9c-0.5-0.6-1.1-1.6-1.8-2.9l1.8-0.5c-1.4,0.8-3.2,2-5.5,3.7c-0.6-0.2-0.9-0.7-0.9-1.5c-1.4,0.7-3.3,2-5.7,4   c0.5,0.5,0.8,1.1,1.1,1.8H44v-1.8h-0.5c0.9-0.3,2.2-0.7,4-1.1c2.3-0.2,3.4,1.1,3.4,3.6c0,2.3-0.9,4-2.7,5l-1.8-1.5l1.1-0.7   c-1,3.2-1.5,5.8-1.5,7.9l-2-1.5c0.1,1.1-0.1,1.8-0.5,2.2H46c0.2-0.8,1.5-1.8,3.7-3.2c2-1.3,3-2.4,3-3.3c0-0.7-0.4-1.4-1.2-2.2   c-0.1-1.7,0.5-3.4,1.6-5C55.1,118.2,56.1,116.6,56.3,116.1z M49.6,178.2c-1.5,0.2-2.3-0.9-2.4-3.3s-0.4-3.5-0.9-3.4   c-0.2,1.8,0.1,4.2,0.7,7.1c0.7,3.3,1.1,5.7,1.1,7.1C48.1,184.7,48.6,182.1,49.6,178.2z M50.8,86.4L47.4,86v0.5l3.2,1.1L50.8,86.4z    M50.6,192.7l-1.5-2.2l0.6,3.3L50.6,192.7z M66.1,154.8c-1.8,0.1-2.9-0.3-3.3-1.2c-1.8-3.3-2.1-5.7-0.9-7.2l-2.2,1.5   c1.6,0.6,2.3,1.4,2.3,2.3c0,0.8-0.6,1.9-1.9,3.5c-1.3,1.6-1.9,2.6-1.9,3.3c-0.4-0.3-0.8-0.9-1.2-1.8h-2.5c0,0.7-0.6,1.8-1.8,3.3   c0.2,0.5,0.8,1.1,1.8,1.6v1.1c-0.5,0.2-1.1,0.7-1.8,1.5l5.4-0.8l-2.5-1.8c0.3,0.1,0.8,0.2,1.5,0.4c0.9,0.2,2-0.7,3.5-2.7   c1.5-2.1,2.9-3.1,4.3-3.1C65.4,154.6,65.7,154.7,66.1,154.8z M57,78.1c-1,0.8-1.6,1.6-1.8,2.6c-0.2,1.5-0.5,2.4-0.7,2.8   C55.1,82.3,55.9,80.5,57,78.1z M59.7,172.5l-3.4-0.9l2.2,3.4C58.5,173.6,58.9,172.8,59.7,172.5z M66.1,114.6   c-0.7-0.9-3.3-0.8-7.9,0.5c0.3,0.2,0.4,0.6,0.3,1.1l1.2-1.1c0.9,0.3,2.3,1.3,4.2,2.9v-1.9C64.4,115.6,65.1,115.1,66.1,114.6z    M62.8,78.1l-4.3-0.6c0.2,0,0.8,0.3,1.6,0.8c0.9,0.5,1.5,0.8,1.9,0.8C62.5,79.2,62.8,78.8,62.8,78.1z M66.1,198.4   c-1.9,0-3,0.4-3.3,1.2l-1.6-1.6L66.1,198.4z M111.2,52.4c-3.2,0.1-5.3-0.3-6.4-1.1l1.3-1.9c-0.4-0.3-0.8-0.4-1.3-0.4   c-0.2,0.3-1.1,1.3-2.7,3s-2.4,2.8-2.4,3.2c0,0.5,0.3,1.1,0.9,1.8c-0.1-2.8,1.1-4.2,3.5-4.2c0.5,0,1.2,0.1,2.1,0.2s1.6,0.2,2.1,0.2   C109.5,53.3,110.5,53,111.2,52.4z M104.8,191.3l-1.2-4v4H104.8z M119.4,53.1h-5.7c0.9-0.2,1.9-0.4,2.9-0.6   C117.8,52.3,118.7,52.5,119.4,53.1z M127.3,37.4l0.9,6.9c-0.1-0.4-0.1-0.8-0.1-1.2c0-0.5,0.2-1.3,0.5-2.3s0.5-1.6,0.5-1.9   C129.1,38.1,128.5,37.6,127.3,37.4z M137.4,23.8h-2.7v-3.4c1.6,0,2.5,0.2,2.7,0.6C137.4,21.2,137.4,22.1,137.4,23.8z M138.3,137.5   l-2.7-3.9l-0.9,0.5l2.7,4.2L138.3,137.5z M138.9,200.2l-0.6,0.9c-0.1-0.5-0.4-1.1-0.9-1.5l-1.2,0.6c-1-0.1-1.5-0.4-1.5-1.1   c0-0.6,0.6-1.7,1.8-3.1c1.2-1.4,1.8-2.3,1.8-2.6c0-0.7-0.3-1.4-0.9-2.1c1,2.8,1.5,4.6,1.5,5.5c0,1.3-0.5,2.3-1.5,2.8L138.9,200.2z"
   class="st0" />
	<path
   style="fill:#ffffff"
   id="path6"
   d="M297.1,151.2l-3.3,1.1l1.1,0.7l-1.5,3.7l1.3,1.3c-1.5,18-1.8,31.8-0.8,41.6l-65.5-0.7l-1.3-2l2.5-3.2v-0.4   l1.1,1.5l5.8-2.7l0.8-3.7l-3-6.9l-2.5,3.3l0.8,0.7l-2.5,1.2l0.2,1.1l-6.4,3.4l-2.2-1.6l-1.5,3.9l1.5,1.5l-0.5,0.7l-2.8-2.2l1.1-1.2   l-3-1.1l-0.2-2.1l3.5-2.2l-1.8-2.2c-4.4,1.4-8.6,3.9-12.6,7.6l3.7,2.7l-1.2,0.7l-1.8-2.2l-3,2.2l2.2-3.4l-3.9-4.2l-6.4,3.3   l-2.5-0.6l1.2-10.3l-3.2-4.7l-3.3,2.7l-1.4-0.2l1.4,2.5l-8.1-0.2l-4.7-3.5l-1.5,0.9l-4.7-1.2l-1.1,1.2l0.6,2.2h1.4l-2.2-0.9   l-2.5,2.2l0.7,3.5c-2.3,1.3-4.5,3.5-6.7,6.4c5.9-10.6,16.9-33,32.8-67.2l3.3-2.2c0.2-6.6,3-11.9,8.3-15.8c0.5-3.8,1.9-8.2,4.2-13.1   c2.2-4,4.3-8.1,6.4-12.3l-0.7,0.9h8.6l-1.5-4.2H217c1.8-5.1,2.9-8.1,3.3-8.9c1.7-3.4,3.9-5.5,6.5-6.2l-0.5-0.9l3.7-4.4l1.6,1.1   l1.8-5.3l-0.9-2.2l-1.3-0.2l-4.4,4.4l-1.5-0.9c-0.4,3.5-3.4,5.3-9.1,5.3c-0.9,0-2.4,0-4.3-0.1c-1.9-0.1-3.4-0.1-4.4-0.1   c-8.6,0-12.8,3.4-12.6,10.3c-1.7,2.2-3,6-4,11.6c-3.9,1.2-8.7,1.7-14.4,1.5c-4.8-0.2-9.7-0.4-14.5-0.6l0.9-8.2   c-0.2,0.2-0.2,0.5-0.2,0.7c0,0.4,0.2,0.6,0.5,0.7c0.6,0,0.9-0.6,0.9-1.9c0-0.6-0.1-1.4-0.4-2.2l1.6-0.5l-0.7,2.5   c1.7-0.1,3.3,1,4.8,3.3c1.9,2.7,3.2,4.3,4.1,4.7c-0.2-6.1,0.9-10.1,3.3-12.1l-1.8-1.6l-1.5,2.2l2.7-4l-5.8-4l-1.8,2.2l0.7,1.8   l-4.7-0.6l-0.7-6.1l1.4,1.2c0-6.9,0-13.8,0.1-20.7c0.3-9.3,1.4-15.8,3.2-19.5l10.6,2.5l-1.3,4.2l4.7,7.7l3,0.2h-8.9l-0.6-1.5   l-2.2,5.4l-2-1.6l-1.6,2.9l4.2,2.5l2.2-4.2v3.7l-1.8,2.2l2.5,0.7l2.9-7.8l-0.2,1.2l2.5,4.9l2.5-0.7l-1.6-2.5l2.2,0.9l1.6-4.3   l3.5,3.4l0.7-9.1h1.5l-2.9-2.2l-6.7,2.2c0.4-2.8,1.5-5.2,3.4-7.1c1.9-1.9,4.1-2.9,6.6-2.9c1.9,0,3.8,0.6,5.5,1.9   c2.8-2.1,9.8-3.2,21-3.2c9.1,0,17.9,0.5,26.3,1.5l1.8,2.5l3.2-2l4,0.5l1.2,2.5l4-4.4l4.9,2l2.2-1.8l2.8,2.5l1.4-2.5l2.8,5.7   c-0.2-2.7,1.1-4.5,3.9-5.4c1.6-0.5,4-0.6,7.2-0.4c1.6,1.9,5.1,3.3,10.5,4.2c0,6-1.1,11.8-3.4,17.4c-2.6,6.7-6.3,10.9-11.1,12.7   l-2.5,4.2l2.5,4.3l-4.9,6.8l-3,1.2l1.3,2.5c-1.4,3.3-2.5,5.7-3.3,7c-1.6,2.5-3.4,4.2-5.6,5.1c0.5,1.1,0.7,2.2,0.7,3.4   c0,3-2.1,7.4-6.4,13.1c-0.1,2.3-1.8,6.1-5.1,11.6l-1.3-4c1.1,5.4,0,10.4-3.4,15.1h-0.8c-2.9,8.6-7.3,16.5-13.3,23.9l0.6,1.5   l-6.4,6.4c0.9,0.9,1.3,2.1,1.3,3.4c0,1.9-0.8,3.9-2.3,5.7c13.3,0.1,22.3-0.7,26.9-2.5l0.6,0.9c5.4-3.7,8.1-8.4,8.1-14.4   c0-1.2-0.2-2.3-0.5-3.4c0.4-0.9,1.5-4.1,3.3-9.6l3.9-2.2h25.5v17H297.1z M179.3,185.6c-2.4,4.7-3.4,7.8-3,9.3   c1.5,0.3,2.2,1.4,2.2,3.4c0,1.7-0.8,2.7-2.5,3c-0.3,0.1-1.8-0.3-4.6-1.2c-2.7-0.9-4.5-1.3-5.3-1.3l-0.8,0.7   c-0.4-0.5-0.9-1.4-1.4-2.5l-2,1.8v-2.7c0.9,0.1,1.8,0.7,2.7,1.8c-1.5-4.4-1.2-7.7,0.7-9.9c0,1.7,0.9,3.6,2.6,5.7   c1.1,0.2,1.9,0,2.5-0.4c-0.3-0.8-0.9-1.2-1.8-1.2c1.5-0.5,2.2-1.4,2.2-2.7l-0.1,0.5c-0.4-1.9-1.3-4.7-2.8-8.4   c1.3,0,3.2,0.7,5.5,2.2C175.8,185.3,177.7,185.9,179.3,185.6z M170.4,58.2V54l-1.1,4.7L170.4,58.2z M170.4,69.3l-1.1,1.2l1.1-3.4   V69.3z M174.6,195.6v-2.2h-1.1v2.2H174.6z M180.5,49.8c0-2.2-0.4-3.4-1.2-3.7c0.1,0.7-0.6,1.1-2,1.3s-2.2,0.5-2.2,0.9v0.9   c1,0,2.1-0.5,3.4-1.6C179.6,48.1,180.3,48.8,180.5,49.8z M181.5,27.1c-1.2-1.1-1.4-2.2-0.6-3.3C182.3,24.2,182.5,25.3,181.5,27.1z    M180.9,58.2c0-1.4-0.2-2.8-0.5-4.2L180.9,58.2z M198,195.6l-3.2,4c-1.3-2.6-2.8-4-4.6-4c-1.6,0-2.2,1.5-1.9,4.6l-7.5-0.6   c0.7-1.3,1-3.6,0.9-6.8s0.5-5.6,1.6-7.2c2.2,3.1,2.4,6.2,0.7,9.3c-1-0.2-1.9,0.1-2.7,0.7c1.2,0.9,2.3,1.4,3.5,1.4s2.7-0.7,4.6-2.1   c1.9-1.4,3.3-2.1,4.3-2.1C195.2,192.8,196.6,193.8,198,195.6z M188.4,185.6l-1.1-0.7c0.5-0.1,1-0.7,1.7-1.8s1.2-1.7,1.6-1.7   c0.8,0,1.2,0.4,1.2,1.1c0,0.6-0.5,1.2-1.6,1.8C189.2,184.7,188.5,185.2,188.4,185.6z M196.2,47l-3.9-6.5l-0.8,0.2l4.2,6.9L196.2,47   z M207.9,164.6c-1-0.1-1.7,0.4-2,1.5c-0.4,1.1-0.7,2.1-1,3l-1.2-0.6c-1.5,0.9-3,1.8-4.4,2.7c-1.7,1.2-2.9,2.4-3.5,3.7l1.1,0.8   l-2.8,3.4c1.7,0,3.5-1.4,5.3-4.3c1.8-2.8,3.2-4.3,4.1-4.3c0.5,0,1,0.2,1.5,0.6c-1.2,1.9-1.9,3-1.9,3.2c0,0.6,0.6,0.8,1.9,0.6   c0.2-2-0.2-3.2-1.2-3.4c0.3-0.5,1.2-1.4,2.7-2.7c1.2-1.1,1.9-2.1,1.9-2.9C208.2,165.5,208.1,165,207.9,164.6z M199,52.9   c0.1-2.1-0.3-3.2-1.1-3.2v3.2H199z M204.9,152.3h-1.8l0.6,2.5C204.5,154.6,204.9,153.8,204.9,152.3z M210.4,198.9   c-0.8,0.9-1.9,1.4-3.4,1.5c-1.3-0.1-2.6-0.2-3.9-0.2c1.2-2,2.8-3,5-3C208.9,197.1,209.7,197.7,210.4,198.9z M210.4,121.9h-1.3   l0.5,0.6l-1.6,1.6c0.6,0,1.1-0.4,1.4-1.2C209.6,122.2,210,121.9,210.4,121.9z M221.2,161.2c-1.3-0.5-2.7-0.8-4.2-0.8   c-3,0-5.5,1.1-7.5,3.3l4.7,2.5c-0.1-1.2,0.9-2.2,2.8-2.8C219.4,162.5,220.8,161.8,221.2,161.2z M213.7,176.9c0-0.7-0.1-1.2-0.4-1.5   c-0.2-0.3-0.7-0.5-1.4-0.5c0.7,0,1.2,0.1,1.4,0.4C213.6,175.6,213.7,176.2,213.7,176.9z M224.8,172.5c-0.2-0.4-0.4-0.7-0.7-0.9   l-6.2,3.4c0.4,0.6,0.8,1.4,1.3,2.5c0.3,1.6-1.4,2.9-5.3,4l0.2,0.2c1.4,0,2.7-1,4-2.9s2.3-2.9,3-2.9c0.8,0,0.9,1.1,0.5,3.4   c0-1.5,0.4-2.7,1.1-3.6C224.1,173.6,224.8,172.6,224.8,172.5z M219.5,57.1c0-1.9-0.8-3.3-2.5-4.2l-0.8,2   C216.8,55.6,217.9,56.3,219.5,57.1z M222.8,198.9l-0.2,0.7l-4.2-0.7l0.2-0.9L222.8,198.9z M225.9,109.1l-1.8-1.9   c0,0.9-0.6,1.6-1.8,2c-0.8,0.2-1.8,0.3-2.9,0.2c1.9-0.1,3,0.2,3.2,0.9l-0.2-0.2c0.1-0.5,0.6-1,1.6-1.3   C225,108.5,225.7,108.5,225.9,109.1z M234.8,77.6l-4.2,3.3l-3.7-4c-0.8,0.3-1.4,1.1-1.9,2.2c-0.4,1.2-0.3,2.1,0.3,2.7   c2.3-0.2,5-0.6,8.2-1.4C234.3,79.9,234.7,79,234.8,77.6z M228.3,156.3l-2.5,3.2h0.9L228.3,156.3z M234.2,148.1   c-0.4,0.3-1.6,0.7-3.7,1.3c-1.5,0.4-2.2,1.4-2.1,2.9L234.2,148.1z M234.8,76.2v-1.1h-4.2v1.1H234.8z M236.4,71.9   c-0.2-1.5-1.4-2.4-3.9-2.7l3.4,3.6L236.4,71.9z M238.1,49.8h-0.7l-1.1-4.9c-0.2,0.5-0.2,0.9-0.2,1.2c0,0.4,0.2,1.2,0.5,2.3   c0.4,1.2,0.5,2.1,0.5,2.7c0,0.9-0.4,1.6-1.3,1.9c0.4,0,0.7,0.2,1.1,0.7c0.8,0,1.2-0.5,1.4-1.5S238.4,50.5,238.1,49.8z M271.7,62.5   c-1.4,0.2-4.2,2.5-8.3,6.8l-7-0.6l0.6,0.6c-1.7,3.2-4.9,4.8-9.7,4.8c-1.8,0-4.8-0.4-9.1-1.2l0.8,0.7l-1.5,1.5l0.7,1.1l0.8-1.1   c1.9-0.1,3.2,0.5,4.1,1.8c-0.4,0.5-1.3,1-2.8,1.5c-1.2,0.4-1.9,1.2-2.1,2.5c3,0.2,4.6-0.5,4.6-2c0-0.4-0.1-0.8-0.4-1.3   c1.8-1.5,5.1-2.6,9.9-3.4c4.6-0.7,7.8-1.9,9.6-3.7c4-0.2,6.5,0.1,7.4,0.9c-0.5-0.7-0.8-1.4-0.8-2c0-0.8,0.5-1.9,1.6-3.4   C271,64.4,271.6,63.3,271.7,62.5z M241.7,66.2v-0.9l-3-0.6l-0.5,0.6L241.7,66.2z M292.2,157c-1.6-0.3-3.3-0.1-5,0.6   c-1.9,0.9-3.1,2.1-3.4,3.6l3.4,2.5c-0.2-1.1,0.1-1.8,0.9-2.2c0.5-0.2,1.4-0.3,2.6-0.2c0.3,0.5,0.5,1.1,0.5,1.5   c0,0.8-0.8,1.6-2.5,2.4c-1.6,0.8-2.5,1.7-2.5,2.7l0.5,0.7c-1.2,0-4.6-1.3-10-4c1.2-1.4,2.1-2.5,2.7-3.4c-0.1-0.8-0.6-1.6-1.5-2.3   c-1.2-1-1.8-1.6-2-1.9c-0.4-0.5-0.9-3.1-1.6-7.6c-0.5-3.1-2.1-4.7-5-4.7l5.3,4.9c-0.2,0.5-0.2,1.1-0.2,1.5c0,1,0.4,2.5,1.3,4.5   s1.3,3.4,1.3,4.3c0,1.4-0.8,2.6-2.3,3.7c3.1,1,4.7,2.2,4.7,3.5c0,0.9-1,2.4-2.9,4.6c-1.9,2.2-2.9,3.9-2.9,5.3   c-0.4-0.3-2.2-0.6-5.4-0.9c-2.4-0.2-3.6-1.1-3.5-2.6l-1.2,4c1.6-1.1,3.3-1.6,5.1-1.6c1.1,1.2,1.7,2.3,1.8,3.4l-2.2,3.7   c-0.9,0-1.8-0.4-2.9-1.2s-2.1-1.2-3-1.2c-0.5,0-1.1,0.1-1.8,0.2l-1.8-2.2h-0.5v3.2h0.5c0,1.8-1.9,2.9-5.8,3.3l1.2,0.7l-1.6,1.5   l-1.1,0.2l-0.7-1.8c-1.9,0-3.9,0-6,0c-2.8,0-4.2,0.8-4.2,2.5c0,0.4,0.1,0.7,0.2,1.1L239,188l1.2,1.1l-1.2,1.6h6.7l-1.8-2.7   c2.1-1.4,3.8-2.1,5.1-2.1c1.6,0,2.4,1.1,2.5,3.4l-0.2,0.2c1.6-1.7,3.1-2.6,4.6-2.6c1.3,0,2.5,1.3,3.4,3.9c0.9,2.6,1.8,3.9,2.7,4.1   l-0.7-2.7l2.2-1.5c0.5-2.3,0-4.3-1.5-5.8l1.2-0.8c0.8,0.4,1.5,0.6,2.2,0.6c1.1,0,2.4-0.8,3.9-2.3s2.8-2.3,3.8-2.3   c0.6,0,1.3,0.2,2,0.6c3-0.9,4.6-1.9,4.9-3c0.9-2.7,1.4-4.4,1.8-4.9l1.8,0.7l1.6-1.9c2.3,1.2,3.9,2.3,4.7,3.4l1.1-2.2   c-1.2-0.1-2.9-0.6-5.1-1.5l2.5-0.9c0.1-1.3,1-3,2.7-5c1.8-2,2.6-3.6,2.6-5C293.4,159.3,293,158.2,292.2,157z M242.4,89.2   c-0.5-0.5-1.2-1.1-2.2-1.8v1.8H242.4z M256.4,41.8l-1.9-1.5c0.1-0.5,0.3-1.1,0.7-1.9L255,38l-1.1,0.6l0.6,0.7   c-1.2,0.1-2-0.2-2.2-0.9c0.6-0.7,0.9-1.5,0.9-2.5c0-1.2-0.9-3.2-2.6-5.8c-1.7-2.6-2.6-4.6-2.6-5.8c0.5,1.8,1.5,4.3,3.2,7.5   c-0.5,1.2-1.3,1.9-2.2,1.9c0.1,0.8,0.5,1.3,1.3,1.6c1.2,0.4,1.9,0.6,2,0.7l-2.6,3.4c-0.2-0.3-0.9-0.7-2-1.1   c-1.1-0.4-1.6-0.9-1.6-1.4c0-0.3,0.1-0.6,0.2-0.9h-2.5c0,0.6-0.3,1.2-0.8,1.6c-0.1,1-0.4,2.3-1.1,3.9l-0.1-0.1c0,0.8,0.7,1.5,2,2.2   c-0.6,0.4-0.9,1.2-0.8,2.5c1.5,0,2.2-0.4,2.2-1.1c0-0.2-0.1-0.6-0.3-1.1s-0.3-0.9-0.3-1.1c0-0.5,0.3-0.8,0.9-0.9   c0.5,0.2,0.8,0.8,0.7,1.8l4.9-4.2l1.1,0.9c-0.2,1.4-1.1,3.3-2.6,5.7c-0.6-0.5-1.2-0.9-1.6-1.2l0.9,2.7l1.5-2.7   c0.5,0.8,1.1,1.2,1.8,1.2c-1.4-1.6-1.2-3,0.5-4.2l1.8,1.8L256.4,41.8z M252.3,170.3l-0.8-0.7l-0.7,0.7l0.5,0.9   c-0.5-0.2-1-0.5-1.5-0.9l0.8,5.5v-2l-0.2-0.4C249.8,172.4,250.5,171.3,252.3,170.3z M253.9,180.7l-2.7,2.7l-0.7-6   c0,2-0.1,2.8-0.2,2.2C250.4,180.4,251.7,180.8,253.9,180.7z M252.7,68.7v-2.5c-0.2,0-0.5,0.1-0.9,0.4c-0.5,0.3-0.9,0.4-1.3,0.4   c0.3,0.5,0.5,1,0.7,1.6L252.7,68.7L252.7,68.7z M270.3,23.8l-2.8,2.2c-0.6-2.1-2.1-2.6-4.4-1.4c-2.6,1.3-4.7,1.1-6.1-0.8l0.1,0.1   v0.5l0.4,2.6c0.5,3.6-0.3,6-2.2,7.2c1.9,0.4,3.7,0.7,5.6,1.1c2.4,0.7,3.9,1.8,4.4,3.2c-0.2-0.2-0.2-0.3-0.2-0.4   c0-0.3,0.4-0.8,1.2-1.5c0.8-0.7,1.2-1.1,1.2-1.5c0-0.7-0.7-1.2-2.2-1.5c0.6-0.8,1.7-1.5,3.3-2.2C268.5,29.2,269.1,26.6,270.3,23.8z    M259.4,185.6c-0.3,0.8-1.7,1.2-4.2,1.2c0.2-0.3,0.4-0.6,0.7-0.9c0.8,0.2,1.4,0.5,2,0.9c0.2-0.5,0.5-1.1,0.7-1.9L259.4,185.6z    M266.1,50.7c-0.2-0.4-0.6-0.9-1.1-1.5l-1.6-1.6c0,2.1,0.6,3.2,1.9,3.4h-0.1C265.3,50.8,265.6,50.8,266.1,50.7z M276.7,59.8h-0.8   l-0.9,3l0.9,0.2L276.7,59.8z M287.2,192.2c-0.8-1.5-2.3-3.3-4.7-5.5c-0.2,0.5-0.2,0.9-0.2,1.3c0,1.1,0.6,2.3,1.8,3.5   c1.5,1.6,2.4,2.8,2.7,3.4C286.7,193.7,286.8,192.8,287.2,192.2z M292.9,33.6v-2.2l-4.9-6.1L292.9,33.6z"
   class="st0" />
	<path
   style="fill:#ffffff"
   id="path8"
   d="M451.4,151.2l-3.3,1.1l1.1,0.7l-1.5,3.7l1.3,1.3c-1.5,18-1.8,31.8-0.8,41.6l-65.5-0.7l-1.3-2l2.5-3.2v-0.4   l1.1,1.5l5.8-2.7l0.8-3.7l-3-6.9l-2.5,3.3l0.8,0.7l-2.5,1.2l0.2,1.1l-6.4,3.4l-2.2-1.6l-1.5,3.9l1.5,1.5l-0.5,0.7l-2.8-2.2l1.1-1.2   l-3-1.1l-0.2-2.1l3.5-2.2l-1.8-2.2c-4.4,1.4-8.6,3.9-12.6,7.6l3.7,2.7l-1.2,0.7l-1.8-2.2l-3,2.2l2.2-3.4l-3.9-4.2l-6.4,3.3   l-2.5-0.6l1.2-10.3l-3.2-4.7l-3.3,2.7l-1.4-0.2l1.4,2.5l-8.1-0.2l-4.7-3.5l-1.5,0.9l-4.7-1.2l-1.1,1.2l0.6,2.2h1.4l-2.2-0.9   l-2.5,2.2l0.7,3.5c-2.3,1.3-4.5,3.5-6.7,6.4c5.9-10.6,16.9-33,32.8-67.2l3.3-2.2c0.2-6.6,3-11.9,8.3-15.8c0.5-3.8,1.9-8.2,4.2-13.1   c2.2-4,4.3-8.1,6.4-12.3l-0.7,0.9h8.6l-1.5-4.2h-3.2c1.8-5.1,2.9-8.1,3.3-8.9c1.7-3.4,3.9-5.5,6.5-6.2l-0.5-0.9l3.7-4.4l1.6,1.1   l1.8-5.3l-0.9-2.2l-1.3-0.2l-4.4,4.4l-1.5-0.9c-0.4,3.5-3.4,5.3-9.1,5.3c-0.9,0-2.4,0-4.3-0.1s-3.4-0.1-4.4-0.1   c-8.6,0-12.8,3.4-12.6,10.3c-1.7,2.2-3,6-4,11.6c-3.9,1.2-8.7,1.7-14.4,1.5c-4.8-0.2-9.7-0.4-14.5-0.6l0.9-8.2   c-0.2,0.2-0.2,0.5-0.2,0.7c0,0.4,0.2,0.6,0.5,0.7c0.6,0,0.9-0.6,0.9-1.9c0-0.6-0.1-1.4-0.4-2.2l1.6-0.5l-0.7,2.5   c1.7-0.1,3.3,1,4.8,3.3c1.9,2.7,3.2,4.3,4.1,4.7c-0.2-6.1,0.9-10.1,3.3-12.1l-1.8-1.6l-1.5,2.2l2.7-4l-5.8-4l-1.8,2.2l0.7,1.8   l-4.7-0.6l-0.7-6.1l1.4,1.2c0-6.9,0-13.8,0.1-20.7c0.3-9.3,1.4-15.8,3.2-19.5l10.6,2.5l-1.3,4.2L337,34l3,0.2h-8.9l-0.6-1.5   l-2.2,5.4l-2-1.6l-1.6,2.9l4.2,2.5l2.2-4.2v3.7l-1.8,2.2l2.5,0.7l2.9-7.8l-0.2,1.2l2.5,4.9l2.5-0.7l-1.6-2.5l2.2,0.9l1.6-4.3   l3.5,3.4l0.7-9.1h1.5l-2.9-2.2l-6.7,2.2c0.4-2.8,1.5-5.2,3.4-7.1c1.9-1.9,4.1-2.9,6.6-2.9c1.9,0,3.8,0.6,5.5,1.9   c2.8-2.1,9.8-3.2,21-3.2c9.1,0,17.9,0.5,26.3,1.5l1.8,2.5l3.2-2l4,0.5l1.2,2.5l4-4.4l4.9,2l2.2-1.8l2.8,2.5l1.4-2.5l2.8,5.7   c-0.2-2.7,1.1-4.5,3.9-5.4c1.6-0.5,4-0.6,7.2-0.4c1.6,1.9,5.1,3.3,10.5,4.2c0,6-1.1,11.8-3.4,17.4C444.5,48,440.8,52.2,436,54   l-2.5,4.2l2.5,4.3l-4.9,6.8l-3,1.2l1.3,2.5c-1.4,3.3-2.5,5.7-3.3,7c-1.6,2.5-3.4,4.2-5.6,5.1c0.5,1.1,0.7,2.2,0.7,3.4   c0,3-2.1,7.4-6.4,13.1c-0.1,2.3-1.8,6.1-5.1,11.6l-1.3-4c1.1,5.4,0,10.4-3.4,15.1h-1c-2.9,8.6-7.3,16.5-13.3,23.9l0.6,1.5l-6.4,6.4   c0.9,0.9,1.3,2.1,1.3,3.4c0,1.9-0.8,3.9-2.3,5.7c13.3,0.1,22.3-0.7,26.9-2.5l0.6,0.9c5.4-3.7,8.1-8.4,8.1-14.4   c0-1.2-0.2-2.3-0.5-3.4c0.4-0.9,1.5-4.1,3.3-9.6l3.9-2.2h25.5v17.2H451.4z M333.6,185.6c-2.4,4.7-3.4,7.8-3,9.3   c1.5,0.3,2.2,1.4,2.2,3.4c0,1.7-0.8,2.7-2.5,3c-0.3,0.1-1.8-0.3-4.6-1.2c-2.7-0.9-4.5-1.3-5.3-1.3l-0.8,0.7   c-0.4-0.5-0.9-1.4-1.4-2.5l-2,1.8v-2.7c0.9,0.1,1.8,0.7,2.7,1.8c-1.5-4.4-1.2-7.7,0.7-9.9c0,1.7,0.9,3.6,2.6,5.7   c1.1,0.2,1.9,0,2.5-0.4c-0.3-0.8-0.9-1.2-1.8-1.2c1.5-0.5,2.2-1.4,2.2-2.7L325,190c-0.4-1.9-1.3-4.7-2.8-8.4c1.3,0,3.2,0.7,5.5,2.2   C330.1,185.3,332,185.9,333.6,185.6z M324.7,58.2V54l-1.1,4.7L324.7,58.2z M324.7,69.3l-1.1,1.2l1.1-3.4V69.3z M328.9,195.6v-2.2   h-1.1v2.2H328.9z M334.7,49.8c0-2.2-0.4-3.4-1.2-3.7c0.1,0.7-0.6,1.1-2,1.3s-2.2,0.5-2.2,0.9v0.9c1,0,2.1-0.5,3.4-1.6   C333.9,48.1,334.6,48.8,334.7,49.8z M335.2,58.2c0-1.4-0.2-2.8-0.5-4.2L335.2,58.2z M335.8,27.1c-1.2-1.1-1.4-2.2-0.6-3.3   C336.6,24.2,336.8,25.3,335.8,27.1z M352.3,195.6l-3.2,4c-1.3-2.6-2.8-4-4.6-4c-1.6,0-2.2,1.5-1.9,4.6l-7.5-0.6   c0.7-1.3,1-3.6,0.9-6.8s0.5-5.6,1.6-7.2c2.2,3.1,2.4,6.2,0.7,9.3c-1-0.2-1.9,0.1-2.7,0.7c1.2,0.9,2.3,1.4,3.5,1.4s2.7-0.7,4.6-2.1   c1.9-1.4,3.3-2.1,4.3-2.1C349.5,192.8,350.9,193.8,352.3,195.6z M342.7,185.6l-1.1-0.7c0.5-0.1,1-0.7,1.7-1.8s1.2-1.7,1.6-1.7   c0.8,0,1.2,0.4,1.2,1.1c0,0.6-0.5,1.2-1.6,1.8C343.4,184.7,342.8,185.2,342.7,185.6z M350.5,47l-3.9-6.5l-0.8,0.2l4.2,6.9L350.5,47   z M362.2,164.6c-1-0.1-1.7,0.4-2,1.5c-0.4,1.1-0.7,2.1-1,3l-1.2-0.6c-1.5,0.9-3,1.8-4.4,2.7c-1.7,1.2-2.9,2.4-3.5,3.7l1.1,0.8   l-2.8,3.4c1.7,0,3.5-1.4,5.3-4.3c1.8-2.8,3.2-4.3,4.1-4.3c0.5,0,1,0.2,1.5,0.6c-1.2,1.9-1.9,3-1.9,3.2c0,0.6,0.6,0.8,1.9,0.6   c0.2-2-0.2-3.2-1.2-3.4c0.3-0.5,1.2-1.4,2.7-2.7c1.2-1.1,1.9-2.1,1.9-2.9C362.5,165.5,362.4,165,362.2,164.6z M353.3,52.9   c0.1-2.1-0.3-3.2-1.1-3.2v3.2H353.3z M359.1,152.3h-1.8l0.6,2.5C358.8,154.6,359.1,153.8,359.1,152.3z M364.6,198.9   c-0.8,0.9-1.9,1.4-3.4,1.5c-1.3-0.1-2.6-0.2-3.9-0.2c1.2-2,2.8-3,5-3C363.2,197.1,363.9,197.7,364.6,198.9z M364.6,121.9h-1.3   l0.5,0.6l-1.6,1.6c0.6,0,1.1-0.4,1.4-1.2C363.9,122.2,364.2,121.9,364.6,121.9z M375.5,161.2c-1.3-0.5-2.7-0.8-4.2-0.8   c-3,0-5.5,1.1-7.5,3.3l4.7,2.5c-0.1-1.2,0.9-2.2,2.8-2.8C373.7,162.5,375.1,161.8,375.5,161.2z M368,176.9c0-0.7-0.1-1.2-0.3-1.5   c-0.2-0.3-0.7-0.5-1.4-0.5c0.7,0,1.2,0.1,1.4,0.4C367.9,175.6,368,176.2,368,176.9z M379.1,172.5c-0.2-0.4-0.4-0.7-0.7-0.9   l-6.2,3.4c0.4,0.6,0.8,1.4,1.3,2.5c0.3,1.6-1.4,2.9-5.3,4l0.2,0.2c1.4,0,2.7-1,4-2.9s2.3-2.9,3-2.9c0.8,0,0.9,1.1,0.5,3.4   c0-1.5,0.4-2.7,1.1-3.6C378.3,173.6,379,172.6,379.1,172.5z M373.7,57.1c0-1.9-0.8-3.3-2.5-4.2l-0.8,2   C371.1,55.6,372.2,56.3,373.7,57.1z M377.1,198.9l-0.2,0.7l-4.2-0.7l0.2-0.9L377.1,198.9z M380.2,109.1l-1.8-1.9   c0,0.9-0.6,1.6-1.8,2c-0.8,0.2-1.8,0.3-2.9,0.2c1.9-0.1,3,0.2,3.2,0.9l-0.2-0.2c0.1-0.5,0.6-1,1.6-1.3   C379.3,108.5,379.9,108.5,380.2,109.1z M389,77.6l-4.2,3.3l-3.7-4c-0.8,0.3-1.4,1.1-1.9,2.2c-0.4,1.2-0.3,2.1,0.4,2.7   c2.3-0.2,5-0.6,8.2-1.4C388.5,79.9,389,79,389,77.6z M382.6,156.3l-2.5,3.2h0.9L382.6,156.3z M388.5,148.1   c-0.4,0.3-1.6,0.7-3.7,1.3c-1.5,0.4-2.2,1.4-2.1,2.9L388.5,148.1z M389,76.2v-1.1h-4.2v1.1H389z M390.7,71.9   c-0.2-1.5-1.4-2.4-3.9-2.7l3.4,3.6L390.7,71.9z M392.4,49.8h-0.7l-1.1-4.9c-0.2,0.5-0.2,0.9-0.2,1.2c0,0.4,0.2,1.2,0.5,2.3   c0.4,1.2,0.5,2.1,0.5,2.7c0,0.9-0.4,1.6-1.3,1.9c0.4,0,0.7,0.2,1.1,0.7c0.8,0,1.2-0.5,1.4-1.5C392.7,51.2,392.7,50.5,392.4,49.8z    M425.9,62.5c-1.4,0.2-4.2,2.5-8.3,6.8l-7-0.6l0.6,0.6c-1.7,3.2-4.9,4.8-9.7,4.8c-1.8,0-4.8-0.4-9.1-1.2l0.8,0.7l-1.5,1.5l0.7,1.1   l0.8-1.1c1.9-0.1,3.2,0.5,4.1,1.8c-0.4,0.5-1.3,1-2.8,1.5c-1.2,0.4-1.9,1.2-2.1,2.5c3,0.2,4.6-0.5,4.6-2c0-0.4-0.1-0.8-0.4-1.3   c1.8-1.5,5.1-2.6,9.9-3.4c4.6-0.7,7.8-1.9,9.6-3.7c4-0.2,6.5,0.1,7.4,0.9c-0.5-0.7-0.8-1.4-0.8-2c0-0.8,0.5-1.9,1.6-3.4   C425.3,64.4,425.9,63.3,425.9,62.5z M395.9,66.2v-0.9l-3-0.6l-0.5,0.6L395.9,66.2z M446.5,157c-1.6-0.3-3.3-0.1-5,0.6   c-1.9,0.9-3.1,2.1-3.4,3.6l3.4,2.5c-0.2-1.1,0.1-1.8,0.9-2.2c0.5-0.2,1.4-0.3,2.6-0.2c0.3,0.5,0.5,1.1,0.5,1.5   c0,0.8-0.8,1.6-2.5,2.4c-1.6,0.8-2.5,1.7-2.5,2.7l0.5,0.7c-1.2,0-4.6-1.3-10-4c1.2-1.4,2.1-2.5,2.7-3.4c-0.1-0.8-0.6-1.6-1.5-2.3   c-1.2-1-1.8-1.6-2-1.9c-0.4-0.5-0.9-3.1-1.6-7.6c-0.5-3.1-2.1-4.7-5-4.7l5.3,4.9c-0.2,0.5-0.2,1.1-0.2,1.5c0,1,0.4,2.5,1.3,4.5   s1.3,3.4,1.3,4.3c0,1.4-0.8,2.6-2.3,3.7c3.1,1,4.7,2.2,4.7,3.5c0,0.9-1,2.4-2.9,4.6c-1.9,2.2-2.9,3.9-2.9,5.3   c-0.4-0.3-2.2-0.6-5.4-0.9c-2.4-0.2-3.6-1.1-3.5-2.6l-1.2,4c1.6-1.1,3.3-1.6,5.1-1.6c1.1,1.2,1.7,2.3,1.8,3.4l-2.2,3.7   c-0.9,0-1.8-0.4-2.9-1.2s-2.1-1.2-3-1.2c-0.5,0-1.1,0.1-1.8,0.2l-1.8-2.2h-0.5v3.2h0.5c0,1.8-1.9,2.9-5.8,3.3l1.2,0.7l-1.6,1.5   l-1.1,0.2l-0.7-1.8c-1.9,0-3.9,0-6,0c-2.8,0-4.2,0.8-4.2,2.5c0,0.4,0.1,0.7,0.2,1.1l-1.6-1.1l1.2,1.1l-1.2,1.6h6.7l-1.8-2.7   c2.1-1.4,3.8-2.1,5.1-2.1c1.6,0,2.4,1.1,2.5,3.4l-0.2,0.2c1.6-1.7,3.1-2.6,4.6-2.6c1.3,0,2.5,1.3,3.4,3.9c0.9,2.6,1.8,3.9,2.7,4.1   l-0.7-2.7l2.2-1.5c0.5-2.3,0-4.3-1.5-5.8l1.2-0.8c0.8,0.4,1.5,0.6,2.2,0.6c1.1,0,2.4-0.8,3.9-2.3s2.8-2.3,3.8-2.3   c0.6,0,1.3,0.2,2,0.6c3-0.9,4.6-1.9,4.9-3c0.9-2.7,1.4-4.4,1.8-4.9l1.8,0.7l1.6-1.9c2.3,1.2,3.9,2.3,4.7,3.4l1.1-2.2   c-1.2-0.1-2.9-0.6-5.1-1.5l2.5-0.9c0.1-1.3,1-3,2.7-5c1.8-2,2.6-3.6,2.6-5C447.7,159.3,447.3,158.2,446.5,157z M396.6,89.2   c-0.5-0.5-1.2-1.1-2.2-1.8v1.8H396.6z M410.6,41.8l-1.9-1.5c0.1-0.5,0.3-1.1,0.7-1.9l-0.2-0.4l-1.1,0.6l0.6,0.7   c-1.2,0.1-2-0.2-2.2-0.9c0.6-0.7,0.9-1.5,0.9-2.5c0-1.2-0.9-3.2-2.6-5.8s-2.6-4.6-2.6-5.8c0.5,1.8,1.5,4.3,3.2,7.5   c-0.5,1.2-1.3,1.9-2.2,1.9c0.1,0.8,0.5,1.3,1.3,1.6c1.2,0.4,1.9,0.6,2,0.7l-2.6,3.4c-0.2-0.3-0.9-0.7-2-1.1   c-1.1-0.4-1.6-0.9-1.6-1.4c0-0.3,0.1-0.6,0.2-0.9H398c0,0.6-0.3,1.2-0.8,1.6c-0.1,1-0.4,2.3-1.1,3.9l-0.1-0.1c0,0.8,0.7,1.5,2,2.2   c-0.6,0.4-0.9,1.2-0.8,2.5c1.5,0,2.2-0.4,2.2-1.1c0-0.2-0.1-0.6-0.3-1.1c-0.2-0.5-0.3-0.9-0.3-1.1c0-0.5,0.3-0.8,0.9-0.9   c0.5,0.2,0.8,0.8,0.7,1.8l4.9-4.2l1.1,0.9c-0.2,1.4-1.1,3.3-2.6,5.7c-0.6-0.5-1.2-0.9-1.6-1.2l0.9,2.7l1.5-2.7   c0.5,0.8,1.1,1.2,1.8,1.2c-1.4-1.6-1.2-3,0.5-4.2l1.8,1.8L410.6,41.8z M406.6,170.3l-0.8-0.7l-0.7,0.7l0.5,0.9   c-0.5-0.2-1-0.5-1.5-0.9l0.8,5.5v-2l-0.2-0.4C404.1,172.4,404.8,171.3,406.6,170.3z M408.2,180.7l-2.7,2.7l-0.7-6   c0,2-0.1,2.8-0.2,2.2C404.7,180.4,405.9,180.8,408.2,180.7z M407,68.7v-2.5c-0.2,0-0.5,0.1-0.9,0.4c-0.5,0.3-0.9,0.4-1.3,0.4   c0.3,0.5,0.5,1,0.7,1.6L407,68.7L407,68.7z M424.5,23.8l-2.8,2.2c-0.6-2.1-2.1-2.6-4.4-1.4c-2.6,1.3-4.7,1.1-6.1-0.8l0.1,0.1v0.5   l0.4,2.6c0.5,3.6-0.3,6-2.2,7.2c1.9,0.4,3.7,0.7,5.6,1.1c2.4,0.7,3.9,1.8,4.4,3.2c-0.2-0.2-0.2-0.3-0.2-0.4c0-0.3,0.4-0.8,1.2-1.5   c0.8-0.7,1.2-1.1,1.2-1.5c0-0.7-0.7-1.2-2.2-1.5c0.6-0.8,1.7-1.5,3.3-2.2C422.8,29.2,423.4,26.6,424.5,23.8z M413.7,185.6   c-0.3,0.8-1.7,1.2-4.2,1.2c0.2-0.3,0.4-0.6,0.7-0.9c0.8,0.2,1.4,0.5,2,0.9c0.2-0.5,0.5-1.1,0.7-1.9L413.7,185.6z M420.3,50.7   c-0.2-0.4-0.6-0.9-1.1-1.5l-1.6-1.6c0,2.1,0.6,3.2,1.9,3.4h-0.1C419.6,50.8,419.9,50.8,420.3,50.7z M431,59.8h-0.8l-0.9,3l0.9,0.2   L431,59.8z M441.5,192.2c-0.8-1.5-2.3-3.3-4.7-5.5c-0.2,0.5-0.2,0.9-0.2,1.3c0,1.1,0.6,2.3,1.8,3.5c1.5,1.6,2.4,2.8,2.7,3.4   C440.9,193.7,441.1,192.8,441.5,192.2z M447.2,33.6v-2.2l-4.9-6.1L447.2,33.6z"
   class="st0" />
	<path
   style="fill:#ffffff"
   id="path10"
   d="M628,163.4l-5.3,2.7l-14.5-1.2l-0.5,1.2l2.2,3l2.1-1.1c2.4,3.3,5.2,5.5,8.4,6.4l-0.2,2.7l2.5,2.5v-5.1l1.1-0.5   l3.2,5.1l-2.5,5.4l1.1,8.4l-2.2,0.6l-6.8-2.8l-1.9-2.7l-0.4,1.5h-2.7v-2.8l6-1.2l-1.8-6l0.7,1.1l2.3-2.5l-2.3-3.5l1.1-1.3   c-1.9-0.2-3.6,1.6-4.9,5.1c-1.5,4-3,6.4-4.4,7l1.8-0.9l-1.8-9l-2.8,2.6l-2.1-0.8c0.5-0.9,0.7-3.2,0.8-6.9c0.1-2.6,0.9-4.5,2.3-5.6   l-3.2-0.3l3.2-1.9l-1.1-1.5c-0.2,0-0.4,0.3-0.6,0.8c-0.2,0.5-0.4,0.8-0.6,0.8l-1.8-1.3l-0.9-10.9H601l1.6-2.5l-4.4-2.9l-7.1,3.4   l4.4,5l-5.6,4.9l2.1,3.4l-2.1,0.8l3.6,1.9c1.5,4.2,1.5,7.7,0,10.4l-1.5,0.7c-0.8-1.9-2.5-3-5.1-3.5c-2.1-0.4-4.2-0.7-6.4-1.1   l-1.6-5l-6.4-2.7l-1.1,3.5l1.8,0.5l-0.9,2.9l2.5,5.7l-1.5-1.5v0.5h-2.7v-0.5h0.9l0.2-1.5l-1.2-2.7l-2.7,3.5l5.4,3.6l-1.5,3l5.5,6.3   l-0.6,1.3l4,0.9v2.8l-2.7-2.2l-4.4,2.7l-6.7-0.9l-1.2-8.9l4.3-1.8l0.6-2.5l-5.5-4.8l0.8-3.9l-0.2,1.2l2.7,1.5l1.6-1.5l-4.9-2.2   l-0.7-2.5h2.9l-3.4-3.4l0.1,0.2l0.2-0.9l0.8-7.5l1.8,0.7l0.9-2.5c-2.8-4.9-4.4-10.4-4.9-16.6c-0.4-6.5-0.8-10.2-1.3-11.1   c-1.3-2.6-4.9-4-10.6-4c-3.7,0-8.7,0.5-15.2,1.4c0.2,3.4,0,8.2-0.6,14.2c-0.5,6.8-0.7,11.6-0.7,14.4c0,7.5,1.2,13.9,3.5,19.2   c-0.1,4.8-0.4,12-0.9,21.5h-15.3l-1.1-2.2l-0.7,2.2l-2.2-2.2l-1.1,3.4h-43.3v-28l3.4,1.2l0.1-0.9l-3.5-2.5c-0.2-4.3,0.6-7,2.5-8.2   l3.3,3.5l-1.8,0.5l3.4,3.4l-1.6,2.7l6.1,3.7l2-1.4l-2.2-2.8l4.2-5.6l-1.2,2l4.3,4.1l3.3-2.7c-1.2-0.2-2.1-0.3-2.9-0.6   c-1.5-0.6-1.9-1.2-1.2-1.8c0.6-0.6,2-0.7,4.1-0.4l-0.9,1.1l5.6,3.2l1.5-1.5l-4-3.4l1.8-4l-2.5,0.7l-4.8-4.7l1.5-3.6l-3.2-0.6   l-1.5,3.3l-6.7-1.1c-0.2-2.9-0.5-5.7-0.7-8.5c-0.2-3.3,0.4-6.1,1.6-8.4c-3.2-5.2-4.8-19.4-4.8-42.6c0-5.3,0.1-12,0.2-20.1   c0.2-8.1,0.2-13.1,0.2-15h-8.9c-0.7-2.8-1.1-7.2-1.3-13.1c-0.2-5.9-0.7-10.4-1.5-13.3l1.8-6.2l2.5,2.2l1.8-1.8l1.5,2.5l1.4-2.7   l-3.9-5.4h0.2l3.2,3.4c2.6-2.4,21.1-3.6,55.7-3.6l1.3,38l-4,1.9l4,5.5l-2.5,1.5c2,2.2,3,5.5,3,9.8c0,5.7,0.2,9.2,0.6,10.4l6.4,1.2   c0.3-0.8,1.9-3.2,4.8-7.1c2.1-2.9,3.2-5.4,3.2-7.6c0-0.9-0.2-1.7-0.5-2.6l0.9-3.2l0.1,0.9l2.1-8.5h1.2c0.9-5.9,3-12.8,6.2-20.7   c2.8-6.7,5.6-13.4,8.4-20.1c10.1-1,17.5-0.8,22.5,1l3.2-2.2l3.7,2.2c5.1-1.2,11-1.2,17.5,0l-0.9,0.5l-2.2-1.1l-1.1,0.6   c3.6,4.2,5.4,6.9,5.4,7.9c0,0.8-0.9,1.3-2.7,1.6c-3.1,0.6-5.3,1.1-6.4,1.5l2.3,4.3l-1.3,0.4l-0.7,4.2l2.5,1.4l-2.2,6.4l1.6,0.9   l2.8-0.7l-1.3-3.4l2.5,2.5l-4,8.4l-1.2-2.8l1.3-2.5l-2-2.2l-0.6,1.1l-0.9-1.1l-0.9,2.2l2.5,7.7l-2.5-1.1l-2.2,1.8l0.5,1.5l-2.2,2   l3.2,2.2l4-4.6c0,4.5-2.9,11.3-8.6,20.3l-0.9-3.5l1.4-1.8l-2.5-1.6c-1,2.6-0.9,6.1,0.2,10.5l-3.4,3.3l-0.6,3.9l-2.1-2.7l2.7-1.2   l-4-1.3c-0.6-0.2-0.9-0.1-0.9,0.5c0,0.2,0.1,0.7,0.2,1.3c0.1,0.7,0.2,1.2,0.2,1.6c0,0.9-0.4,1.5-1.2,1.8l6.5,8.6l4.3,0.8l3.7,4.2   l-0.5,2.9l2.2,5.6h0.9l-0.9-6.5l2.1-2l2.3,2.5l-1.3,6.4l1.8,3.4l0.9-5.8l1.1,0.9l2-1.8c3.7,5.5,5.4,13.4,5.4,23.9l-1.8,0.5   c0.3,1.6,0.5,4.2,0.5,8.1v1.3c0,5.8,0.5,9.9,1.4,12.4c1.5,4,4.4,6,8.8,6.2l-0.5,0.9L628,163.4z M501.3,58.6v-4   c-0.8,0.1-1.4,0.5-1.8,1.2c-0.2-0.2-0.9-0.9-2.2-2.1c-1-1-1.9-1.5-2.6-1.5c-0.3,0-0.6,0.1-0.9,0.2c-0.2-1.2-0.9-2.9-2.1-4.9   s-1.9-3.9-2.1-5.7c-0.3-3.3-1.6-5.3-3.9-6.2c-3.7-1.4-5.9-2.5-6.7-3.2c-0.1,0.3-0.1,0.6-0.1,0.9c0,1.1,0.6,2.2,1.9,3.3   s1.9,2,1.9,2.7c0,0.4-0.1,0.8-0.4,1.3l-1.8-1.3c-3,0.1-6.5-0.9-10.5-2.9c3.4,5.1,5.3,9.2,5.6,12.3c1.2-1.5,2.2-2.2,3-2.2   s1.9,1.1,3.4,3.2c1.5,2.1,3,3.2,4.4,3.2c-0.5,1-1.9,1.4-4.2,1.1c0.7,0.7,1.1,1.8,1.3,3.2l3.4-0.9c1.6,0.7,2.5,1.8,2.5,3.2   c0,0.7-0.3,1.8-0.8,3.3s-0.8,2.5-0.8,3.2c0,0.9,0.4,1.7,1.2,2.2c0.3-0.9,1.3-2,2.9-3.2c1.4-0.9,2.1-2,2.1-3.2   c0-0.5-0.1-1.2-0.4-1.9c1.2-1.6,2.1-2.3,2.8-2.3c0.5,0,0.9,0.5,1.4,1.6c0.7,1.5,1.2,2.5,1.5,2.9l-1.1-1.8c0-1.1,0.6-1.8,1.8-2.1   L501.3,58.6z M489.4,49.5l-0.2,0.2c-0.6-1-1.2-1.5-1.9-1.5c-0.3,0-0.9,0.3-1.8,0.8s-1.6,0.8-2.1,0.8l-0.9-2.5c1-0.5,1.5-1.1,1.5-2   c0-0.2-1.1-0.8-3.3-1.8l1.8-1.8c0.6,0,1.1,0.6,1.5,1.8c1.6,1.2,2.9,1.4,4,0.5c0,0.2,0.1,0.6,0.2,1.3c0.1,0.5,0.1,1-0.1,1.3   c-0.1,0.3-0.4,0.6-1,0.6c0.5,0.5,1.2,1.2,2.1,2.1l0.1-0.1L489.4,49.5L489.4,49.5z M483.8,151.2c-0.3,0.3-0.4,1.2-0.3,2.6l-1.9-2.6   H483.8z M484.9,176.7c0.1-4.1-0.7-6.7-2.5-7.6l-0.9,1.2C482.9,171,484,173.1,484.9,176.7z M499.5,39.4c-0.6-0.3-1.2-1.7-1.9-4.2   c-0.6-2.3-1.6-3.4-3-3.4c0.1,1.1,0.9,2.6,2.3,4.5c1.5,1.9,2.2,3.4,2.2,4.6c0,0.5-0.1,1.1-0.2,1.6C498.7,40.6,498.9,39.5,499.5,39.4   z M495.6,46.5V44h-0.9L495.6,46.5z M511.8,50.7v-0.9h-3.4v-1.1c-0.5,1.3-1.3,2-2.2,2c-0.9-0.7-2.3-1.6-4-2.7   c-0.3,0.1-0.6,0.2-0.9,0.2l-1.1,1.5c-0.3-0.5-0.7-0.8-1.3-1.1c-0.2,0.2-0.3,0.6-0.5,1.1c0.2,0.8,0.7,1.8,1.5,2.9   c0.2-0.2,0.8-1.1,1.8-2.9l1.8,1.8l-0.6,0.9l1.5-2.7c3.4,1.2,5.2,1.8,5.3,1.8C510.5,51.5,511.2,51.2,511.8,50.7z M507.9,86.9   l-2.2-0.9l-0.1,0.9l2.2,0.4L507.9,86.9z M514,189l-1.6-3.4c-0.2,0.1-0.5,0.1-0.7,0.1c-0.9,0-1.7-0.9-2.5-2.6   c-0.8-1.7-1.6-2.6-2.4-2.6c-0.2,0-0.5,0-0.8,0.1c0,2.1,1.4,3.5,4.1,4.2C512.8,185.6,514.1,186.9,514,189z M517.7,129.2   c-1.8-1.5-3.8-4-6-7.5l-1.6,1.8c0.8,0.5,1.3,1.4,1.6,2.8c0.3,1.4,0.2,2.5-0.2,3.2l0.2,0.7C512.6,129.4,514.6,129.1,517.7,129.2z    M513.5,132.3h-1.8v1.8L513.5,132.3z M513.5,112.8v-2.5h-1.2v2.5H513.5z M516.7,52.4c-1.2-1.7-1.8-3-1.6-3.7   c-1,0.9-1.5,2.1-1.5,3.7H516.7z M514,121.2h2.7c0.2-0.5,0.4-0.9,0.4-1.2c0-0.7-0.3-1.1-0.9-1.1C515.1,119,514.4,119.8,514,121.2z    M517.7,98v-2.2c-0.6-0.1-1.1,0.1-1.3,0.5c-0.3,0.4-0.4,1-0.4,1.7H517.7z M520,146.3c-1.1-1.9-2.2-1.9-3.3,0H520z M523.5,102   c-0.7,0-1.9,0.6-3.5,1.8c0.2,0.2,0.5,0.6,0.7,1.1L523.5,102z M520.7,123.5H520v4c0.6,0,1.1-0.2,1.4-0.5c0.4-0.4,0.4-1,0-1.8   C520.9,124.2,520.7,123.6,520.7,123.5z M525.7,55.8l-5-1.9l1.8,2.2c0.8-1.5,1.8-1.6,3.2-0.4l0,0V55.8z M525.7,153.8v-1.1h-3.3v1.1   H525.7z M524.9,99.5c1.6,1.6,1.3,3.5-0.9,5.7l2.7-2.2c1.5,1.5,1.7,4.2,0.7,8.3c1.8-1,2.8-2.2,3.2-3.6c0.1-0.3,0.1-1.9,0.1-4.9   c0-1.5-0.7-2.3-2-2.5C526.6,100.1,525.3,99.8,524.9,99.5z M533.3,158l-3.3-1v1.1l2.8,0.5L533.3,158z M539.9,113.6   c-0.6-1.8-1.3-4.6-2-8.4v1.8c-0.9,0.6-1.5,0.9-2,0.9s-0.9-1.8-1.2-5.3c-0.1-0.3-0.2-0.5-0.2-0.7c-0.4,0.2-0.7,0.7-0.8,1.5l0.2,0.2   c0.1,1.5-0.3,2.3-1.2,2.5c0.5-0.2,1-0.2,1.3-0.2c0.7,0,1.2,1.5,1.4,4.4c0.1,0.4,0.2,0.7,0.2,0.9l-2.9-0.9l2.9,3.7   c-0.2,0.8-1.3,0.7-3.4-0.2c0.1,0.5,0.2,0.9,0.5,1.4c1.6-0.2,2.5-0.7,2.7-1.4c0.2-1.3,0.4-2.2,0.7-2.6L539.9,113.6z M546.8,112.8   c-0.4-0.3-1-0.6-1.8-0.9c-0.5,1.1-1.2,2.2-2.2,3.4C545.5,115.3,546.8,114.5,546.8,112.8z M547.9,122.5h-1.1v-3h1.1V122.5z    M557.7,121.2v-0.9c-0.5-0.6-1-1.4-1.5-2.3c0.4-0.8,0.6-1.5,0.6-2.1c-0.2,0.4-0.4,0.9-0.8,1.4C555.9,117.7,556.5,119,557.7,121.2z    M566.8,63.8c-2.6,0.2-4-0.3-4-1.4c0-0.6,0.5-1.5,1.5-2.6l-6,0.6c1.9,2.5,4.2,3.7,6.7,3.7C565.7,64.1,566.3,64,566.8,63.8z    M570,78.4h-1.6c-0.9-1.6-0.9-3.8,0-6.4c0,1.2-0.4,2.1-1.1,2.7c0-0.5-0.8-0.8-2.3-0.9c-1.6,0-2.3-0.6-2.3-1.8   c-0.3,0.4-0.5,0.7-0.5,0.9c0,0.5,1.7,1.2,5.1,2.2c-0.1,0.6,0.1,1,0.5,1.1c-0.1,1.2-0.8,2.3-2.1,3.2C566.9,79.3,568.3,79,570,78.4z    M592.7,70.9c-1.2-1.6-2.3-2.3-3.3-2.3c-0.5,0-1.1,0.3-1.9,0.8c-0.8,0.5-1.5,0.8-1.9,0.8c-1,0-2.2-0.7-3.5-2.2l-2.7,2.5l1.2,0.5   l-4.9,6.7l1.5,1.8l-0.6,0.9l2.3,2.3c0.5-0.7,0.6-1.5,0.5-2.3l3.9,2.8c-0.9,0.4-1.8,0.6-2.5,0.6c-1.4,0-2.8-1-4.3-3.1   s-2.8-3.1-4-3.1c-0.4,0-0.7,0-1.1,0.1c2.3,0,3.8-1.1,4.6-3.4c0.4-1.2,0.6-3.3,0.6-6.2c0.9,0.7,2.5,0.9,4.8,0.7   c0.8-0.3,1.6-0.6,2.3-0.9c2.6,0.6,4.3,0.9,4.9,0.8c1.8-0.2,2.6-1.4,2.6-3.9C591.8,66,592.3,68.1,592.7,70.9z M587.8,193.8   c0-2.3-1.6-4.7-4.7-7.1c-3.1-2.4-4.9-4.9-5.3-7.5c1.9,0.2,4.6-1,8.2-3.5c0.2,0.9,1.3,1.7,3.4,2.6l0.6-0.8c0.8,0.7,1.2,2,1.2,4   s0.5,3.4,1.5,4.1c-0.5,0.6-0.6,2.3-0.1,5c0.3,2.1-0.5,3.2-2.6,3.2H587.8z M590,78.4c0-0.2-1-1.2-3-3v-0.7l-1.5,1.5l1.5,1.4   c-2.8,1.5-4.7,1.8-5.6,0.8v-2.2h-2c0.9,2.3,2.1,3.4,3.9,3.4c0.9,0,2-0.4,3.4-1.1s2.3-1,2.6-0.9C589.8,77.7,590,78,590,78.4z    M583.3,174.5h-3.9C580.7,172.9,581.9,172.9,583.3,174.5z M590,145.6c0-0.6-0.2-1.7-0.6-3.3L590,145.6z M592.7,172.5   c-0.5,0.2-0.7,0.8-0.6,2H590L592.7,172.5z M599.4,66.2c-0.4-0.9-1.2-1.7-2.5-2.5c-1.4,1.6-2.3,2.5-2.6,2.5H599.4z M599.4,161.9   h-1.5v-3.4C598.9,159.1,599.4,160.2,599.4,161.9z M600.1,163.4c-0.9,1-1.3,2.3-1.3,4c0,0.8,0.1,2,0.4,3.7c0.3,1.7,0.4,2.9,0.4,3.7   s-0.1,1.4-0.2,2c-1.2-4-1.2-8.5,0-13.3L600.1,163.4L600.1,163.4z M600.1,185.6l-0.7,1.5v-2.2L600.1,185.6z M605.5,110.4h-2.1   c-0.4,0.7-0.4,1.8,0,3.2V112L605.5,110.4z M613.4,132.3l1.3-0.7c-0.9-4.4-2.7-10.7-5.5-18.8c-0.2,1.5,0.4,4.1,1.6,7.8   c1.2,4,1.9,6.7,1.9,8.3c0,1.4-0.4,2.5-1.1,3.4c1.2,0,2,0.7,2.6,2c0.4,0.9,0.5,2.1,0.5,3.6C615,134.7,614.6,132.8,613.4,132.3z    M612.2,201.4h-3l2.5-1.2L612.2,201.4z M619.8,54h-8.2c0.6-2.7,1.8-6.8,3.4-12.3c1.1-2.1,2.4-5.4,3.9-9.9c-0.2,1.2-0.2,2.6-0.2,4.1   c0,1.7,0.2,4.3,0.6,7.7c0.4,3.4,0.6,6,0.6,7.8C619.9,52.3,619.9,53.2,619.8,54z M618.1,24.3c-0.8,0-1.3,0.4-1.5,1.1h1.1v2.2h-1.1   v-3.3C616.6,24.3,618.1,24.3,618.1,24.3z M620.5,201.4H618l1.8-3.5L620.5,201.4z"
   class="st0" />
</g>
</svg>