<?xml version="1.0" encoding="utf-8"?>
<!-- Generator: Adobe Illustrator 21.0.2, SVG Export Plug-In . SVG Version: 6.00 Build 0)  -->
<svg version="1.1" id="Warstwa_1" xmlns="http://www.w3.org/2000/svg" xmlns:xlink="http://www.w3.org/1999/xlink" x="0px" y="0px"
	 viewBox="0 0 100 24.3" style="enable-background:new 0 0 100 24.3;" xml:space="preserve">
<style type="text/css">
	.st0{fill:#F96611;}
</style>
<g>
	<path class="st0" d="M9.8,19c0,0-0.1-0.1-0.1-0.2c0-0.1,0-0.1,0-0.2c0-0.1,0-0.1,0-0.2s0-0.2-0.1-0.2c0-0.1-0.1-0.1-0.1-0.2
		c0-0.1,0-0.3,0-0.4c0-0.1,0-0.3,0-0.4c0-0.1,0-0.1,0-0.2c0-0.1,0-0.1,0-0.2c0,0,0-0.1,0-0.2c0-0.1,0-0.2,0-0.3c0-0.1,0-0.2,0-0.3
		c0-0.1,0-0.2,0-0.2c0-0.2,0-0.3,0-0.5c0-0.2,0-0.3,0-0.5c0,0,0-0.1,0-0.3c0-0.2,0.2-0.2,0.2-0.4s0-0.3,0-0.5c0-0.1,0-0.2,0-0.3
		c0-0.1,0-0.2-0.1-0.2c0-0.1-0.1-0.1-0.1-0.2c0-0.1,0,0,0-0.1v-0.1c0-0.1,0-0.2,0-0.3c0-0.1,0-0.3-0.1-0.4c0-0.1-0.1-0.3-0.1-0.4
		c0,0,0-0.1,0-0.2c0-0.1,0-0.2,0-0.3s0-0.2,0-0.3c0-0.1,0-0.2,0-0.2c0-0.1,0-0.2,0-0.3c0-0.1,0-0.3-0.1-0.4c0-0.2-0.1-0.3-0.1-0.4
		c0-0.1,0-0.3,0-0.4c0-0.2,0-0.4,0.1-0.6C9.3,8.3,9.3,8,9.3,7.8c0-0.3,0-0.7-0.1-1c0-0.3-0.1-0.6-0.1-0.9c0-0.1,0-0.2,0.1-0.3
		c0.1-0.1,0.1-0.2,0.1-0.3c0-0.1,0-0.3,0-0.4c0-0.1-0.1-0.3-0.1-0.4c0-0.2-0.1-0.3-0.2-0.4C8.9,4,8.7,4,8.5,4c-0.1,0-0.2,0-0.3,0
		C8,4,7.9,4,7.7,4C7.5,4,7.3,4,7.2,4.1C7.1,4.2,7,4.4,6.9,4.5C6.8,4.7,6.8,4.8,6.7,5c0,0.2,0,0.3,0,0.5c0,0.1,0,0.1,0,0.2
		c0,0.1,0,0.2,0,0.2c0,0.1,0,0.2-0.1,0.4c0,0.1,0,0.2,0,0.3c0,0.2,0,0.3,0,0.5s0.1,0.4,0.1,0.6c0,0.2,0.1,0.4,0.1,0.6s0,0.3,0,0.4
		c0,0.1,0,0.2,0,0.4s0,0.3-0.1,0.5c-0.1,0.2,0,0.3-0.1,0.5c-0.1,0.2,0,0.3,0,0.4c0,0.1,0,0.2,0,0.3s0,0.2,0.1,0.4
		c0.1,0.2,0,0.2,0.1,0.4c0.1,0.2,0,0.2,0,0.3c0,0.1,0,0.2,0,0.4s0,0.4-0.1,0.6V13c0,0.2,0,0.5,0,0.7c0,0.3,0,0.5,0,0.7
		c0,0.2,0,0.4,0,0.5c0,0.2,0,0.3,0.1,0.5c0.1,0.2,0.1,0.3,0.1,0.4s0,0.2,0,0.4c0,0.1,0,0.3-0.1,0.4c0,0.2,0,0.3-0.1,0.4
		c0,0.1,0,0.3,0,0.3c0,0.1,0,0.2,0.1,0.3c0.1,0.1,0.1,0.2,0.1,0.3c0,0.3,0,0.5-0.1,0.8c-0.1,0.3-0.1,0.5-0.1,0.8s0.1,0.6,0.3,0.8
		s0.5,0.3,0.8,0.3c0.1,0,0.2,0,0.3,0c0,0,0,0,0.1,0c0.1,0,0.3,0.1,0.4,0.1c0.1,0,0.2,0,0.3,0s0.2-0.1,0.4-0.1c0.1,0,0.2-0.1,0.3-0.2
		C9.6,20,9.7,20,9.7,20c0-0.1,0-0.1,0-0.2c0-0.1,0-0.1,0-0.2s0-0.2,0.1-0.2c0-0.1,0.1-0.1,0.1-0.2C9.9,19,9.9,19,9.8,19z"/>
	<path class="st0" d="M15.7,19c0,0-0.1-0.1-0.1-0.2c0-0.1,0-0.1,0-0.2c0-0.1,0-0.1,0-0.2s0-0.2-0.1-0.2c0-0.1-0.1-0.1-0.1-0.2
		c0-0.1,0-0.3,0-0.4c0-0.1,0-0.3,0-0.4c0-0.1,0-0.1,0-0.2c0-0.1,0-0.1,0-0.2c0,0,0-0.1,0-0.2c0-0.1,0-0.2,0-0.3c0-0.1,0-0.2,0-0.3
		c0-0.1,0-0.2,0-0.2c0-0.2,0-0.3,0-0.5c0-0.2,0-0.3,0-0.5c0,0,0-0.1,0-0.3c0-0.2,0.2-0.2,0.2-0.4s0-0.3,0-0.5c0-0.1,0-0.2,0-0.3
		c0-0.1,0-0.2-0.1-0.2c0-0.1-0.1-0.1-0.1-0.2c0-0.1,0,0,0-0.1v-0.1c0-0.1,0-0.2,0-0.3c0-0.1,0-0.3-0.1-0.4c0-0.1-0.1-0.3-0.1-0.4
		c0,0,0-0.1,0-0.2c0-0.1,0-0.2,0-0.3s0-0.2,0-0.3c0-0.1,0-0.2,0-0.2c0-0.1,0-0.2,0-0.3c0-0.1,0-0.3-0.1-0.4c0-0.2-0.1-0.3-0.1-0.4
		c0-0.1,0-0.3,0-0.4c0-0.2,0-0.4,0.1-0.6c0.1-0.2,0.1-0.5,0.1-0.6c0-0.3,0-0.7-0.1-1C15.1,6.6,15,6.3,15,6c0-0.1,0-0.2,0.1-0.3
		c0.1-0.1,0.1-0.2,0.1-0.3c0-0.1,0-0.3,0-0.4c0-0.1-0.1-0.3-0.1-0.4c0-0.2-0.1-0.3-0.2-0.4c-0.1-0.1-0.3-0.1-0.5-0.1
		c-0.1,0-0.2,0-0.3,0C13.9,4,13.8,4,13.6,4c-0.2,0-0.4,0-0.5,0.1c-0.1,0.1-0.2,0.3-0.3,0.4c-0.1,0.2-0.1,0.3-0.2,0.5
		c0,0.2,0,0.3,0,0.5c0,0.1,0,0.1,0,0.2c0,0.1,0,0.2,0,0.2c0,0.1,0,0.2-0.1,0.4c0,0.1,0,0.2,0,0.3c0,0.2,0,0.3,0,0.5s0.1,0.4,0.1,0.6
		c0,0.2,0.1,0.4,0.1,0.6s0,0.3,0,0.4c0,0.1,0,0.2,0,0.4s0,0.3-0.1,0.5c-0.1,0.2,0,0.3-0.1,0.5c-0.1,0.2,0,0.3,0,0.4
		c0,0.1,0,0.2,0,0.3s0,0.2,0.1,0.4c0.1,0.2,0,0.2,0.1,0.4c0.1,0.2,0,0.2,0,0.3c0,0.1,0,0.2,0,0.4s0,0.4-0.1,0.6V13
		c0,0.2,0,0.5,0,0.7c0,0.3,0,0.5,0,0.7c0,0.2,0,0.4,0,0.5c0,0.2,0,0.3,0.1,0.5c0.1,0.2,0.1,0.3,0.1,0.4s0,0.2,0,0.4
		c0,0.1,0,0.3-0.1,0.4c0,0.2,0,0.3-0.1,0.4c0,0.1,0,0.3,0,0.3c0,0.1,0,0.2,0.1,0.3c0.1,0.1,0.1,0.2,0.1,0.3c0,0.3,0,0.5-0.1,0.8
		c-0.1,0.3-0.1,0.5-0.1,0.8s0.1,0.6,0.3,0.8s0.5,0.3,0.8,0.3c0.1,0,0.2,0,0.3,0c0,0,0,0,0.1,0c0.1,0,0.3,0.1,0.4,0.1
		c0.1,0,0.2,0,0.3,0s0.2-0.1,0.4-0.1c0.1,0,0.2-0.1,0.3-0.2c0-0.3,0.1-0.3,0.1-0.4c0-0.1,0-0.1,0-0.2c0-0.1,0-0.1,0-0.2
		s0-0.2,0.1-0.2c0-0.1,0.1-0.1,0.1-0.2C15.8,19.1,15.8,19.1,15.7,19z"/>
	<path class="st0" d="M40.5,11.8c-0.1-0.1-0.2-0.1-0.3-0.2c-0.1,0-0.2-0.1-0.3-0.2h-0.5c0,0-0.1-0.1-0.1-0.2c0-0.1,0-0.1,0-0.2
		c0-0.1,0-0.1,0-0.2c0-0.1-0.1-0.1-0.1-0.1c-0.1-0.1-0.2-0.1-0.3-0.1s-0.2,0-0.3-0.1c-0.1,0-0.2-0.1-0.4-0.1c-0.1,0-0.3-0.1-0.4-0.2
		c-0.1-0.1-0.2-0.2-0.4-0.3c-0.1-0.1-0.3-0.2-0.4-0.3c-0.1-0.1-0.3-0.2-0.5-0.3S36.1,9.2,36,9.1c-0.3,0-0.5-0.1-0.6-0.1
		c-0.2-0.1-0.3-0.2-0.5-0.3c-0.1-0.1-0.2-0.2-0.3-0.3s-0.2-0.2-0.3-0.3C34.2,8,34.1,7.9,34,7.8c-0.1-0.1-0.2-0.2-0.4-0.2
		c-0.3-0.1-0.5-0.2-0.7-0.3c-0.2-0.1-0.3-0.1-0.3-0.2c-0.1,0-0.1-0.1-0.1-0.1l-0.1-0.1l-0.1-0.1c-0.1-0.1-0.1-0.2-0.3-0.3
		c-0.5-0.4-0.9-0.7-1.3-0.8c-0.4-0.2-0.7-0.2-1-0.2c-0.2,0-0.4,0-0.6,0.1c-0.1,0-0.1,0.1-0.2,0.1c0,0,0,0-0.1,0c0,0,0,0-0.1,0.1
		c-0.1,0-0.1,0.1-0.2,0.1c-0.1,0.1-0.2,0.3-0.3,0.4c-0.1,0.2-0.1,0.3-0.1,0.5c0,0.1,0,0.1,0.1,0.2l0,0c0,0.1,0,0.1,0,0.2
		s0,0.2,0,0.2c0,0.1,0,0.2-0.1,0.4C28,7.9,28,8,28,8.2c0,0.2,0,0.3,0,0.5s0.1,0.4,0.1,0.6c0,0.2,0.1,0.4,0.1,0.6c0,0.2,0,0.3,0,0.4
		c0,0.1,0,0.2,0,0.4c0,0.1,0,0.3-0.1,0.5c0,0.2,0,0.3-0.1,0.5c0,0.1,0,0.3,0,0.4c0,0.1,0,0.2,0,0.3s0,0.2,0.1,0.4s0,0.2,0.1,0.4
		c0,0.1,0,0.2,0,0.3s0,0.2,0,0.4s0,0.4-0.1,0.6v0.1c0,0.2,0,0.5,0,0.7v0.2c0.1,0.1,0.1,0.3,0.1,0.4c0,0.1,0,0.2,0,0.4
		c0,0.1,0,0.3-0.1,0.4c0,0.2,0,0.3-0.1,0.4c0,0.1,0,0.3,0,0.3c0,0.1,0,0.2,0.1,0.3c0.1,0.1,0.1,0.2,0.1,0.3c0,0.1,0,0.1,0,0.2
		l-0.1,0.1c-0.1,0.2-0.2,0.4-0.2,0.6s0.1,0.4,0.1,0.6v0.1c0,0.3,0.1,0.6,0.3,0.8c0.2,0.2,0.4,0.3,0.8,0.3c0.1,0.1,0.3,0.1,0.4,0.1
		s0.3,0,0.5-0.1s0.4-0.2,0.6-0.4c0.2-0.1,0.4-0.3,0.6-0.5s0.3-0.3,0.4-0.5h0.1c0.1,0,0.2,0,0.2,0c0.1,0,0.2,0,0.2,0
		c0.2,0,0.4-0.1,0.5-0.2c0.2-0.2,0.3-0.3,0.5-0.3s0.3-0.1,0.4-0.1c0.1,0,0.3-0.1,0.4-0.1c0.1,0,0.3-0.1,0.5-0.2
		c0.3-0.2,0.5-0.3,0.8-0.6c0.2-0.2,0.5-0.4,0.7-0.7c0.4-0.2,0.8-0.3,1.2-0.5c0.3-0.1,0.7-0.3,1-0.4c0.3-0.2,0.6-0.3,0.9-0.5
		c0.3-0.2,0.7-0.5,1-0.8v-0.2c0-0.3,0-0.6,0.1-0.9c0.1-0.3,0.1-0.6,0.1-0.9c0-0.2,0-0.3-0.1-0.4C40.6,12,40.5,11.9,40.5,11.8z"/>
	<path class="st0" d="M67.1,19.5c0-0.1,0-0.1-0.1-0.2c0,0-0.1-0.1-0.1-0.2s0-0.1,0-0.2s0-0.1,0-0.2s0-0.2-0.1-0.2
		c0-0.1-0.1-0.1-0.1-0.2s0-0.3,0-0.4s0-0.3,0-0.4s0-0.1,0-0.2c0,0,0-0.1,0-0.2c0,0,0-0.1,0-0.2s0-0.2,0-0.3s0-0.2,0-0.3
		c0-0.1,0-0.2,0-0.2c0-0.2,0-0.3,0-0.5s0-0.3,0-0.5c0,0,0-0.1,0-0.3c0-0.1,0-0.3,0-0.5s0-0.3,0-0.5s0-0.2,0-0.3s0-0.2-0.1-0.2
		c0-0.1-0.1-0.1-0.1-0.2c0-0.1,0,0,0-0.1v-0.1c0-0.1,0-0.2,0-0.3s0-0.3-0.1-0.4c0-0.1-0.1-0.3-0.1-0.4c0,0,0-0.1,0-0.2s0-0.2,0-0.3
		s0-0.2,0-0.3s0-0.2,0-0.2c0-0.1,0-0.2,0-0.3s0-0.3-0.1-0.4c0-0.2-0.1-0.3-0.1-0.4c0-0.1,0-0.3,0-0.4c0-0.2,0-0.4,0.1-0.6
		c0-0.3,0.1-0.5,0.1-0.6c0-0.3,0-0.7-0.1-1c0-0.3-0.1-0.6-0.1-0.9c0-0.1,0-0.2,0.1-0.3c0-0.1,0.1-0.2,0.1-0.3c0-0.1,0-0.3,0-0.4
		s-0.1-0.3-0.1-0.4c-0.1-0.1-0.2-0.2-0.3-0.3c-0.1-0.1-0.3-0.1-0.5-0.1s-0.4,0-0.5,0.1s0.2,0.4,0.2,0.5S65,5.3,64.9,5.5
		c0,0.2,0,0.3,0,0.5c0,0.1,0,0.1,0,0.2s0,0.2,0,0.2c0,0.1,0,0.2-0.1,0.4c-0.1,0.1-0.1,0.2-0.1,0.4c0,0.2,0,0.3,0,0.5
		s0.1,0.4,0.1,0.6c0,0.2,0.1,0.4,0.1,0.6c0,0.2,0,0.3,0,0.4c0,0.1,0,0.2,0,0.4c0,0.1,0,0.3-0.1,0.5c0,0.2,0,0.3-0.1,0.5
		c0,0.1,0,0.3,0,0.4c0,0.1,0,0.2,0,0.3s0,0.2,0.1,0.4c0,0.1,0,0.2,0.1,0.3C64.8,12,64.7,12,64.6,12c-0.1,0-0.2-0.1-0.3-0.2H64
		c0,0-0.1-0.1-0.1-0.2c0-0.1,0-0.1,0-0.2c0-0.1,0-0.1,0-0.2c0-0.1-0.1-0.1-0.1-0.1C63.7,11,63.6,11,63.5,11s-0.2,0-0.3-0.1
		c-0.1,0-0.2-0.1-0.4-0.1c-0.1,0-0.3-0.1-0.4-0.2c-0.1-0.1-0.2-0.2-0.4-0.3c-0.1-0.1-0.3-0.2-0.4-0.3c-0.1-0.1-0.3-0.2-0.5-0.3
		s-0.4-0.1-0.5-0.2C60.3,9.1,60.2,9,60,9c-0.2-0.1-0.3-0.2-0.5-0.3c-0.1-0.1-0.2-0.2-0.3-0.3C59.1,8.2,59,8.1,58.9,8
		c-0.1-0.1-0.2-0.2-0.3-0.3c-0.1-0.1-0.2-0.2-0.4-0.2c-0.3-0.1-0.5-0.2-0.7-0.3c-0.2-0.1-0.3-0.1-0.3-0.2c-0.1,0-0.1-0.1-0.1-0.1
		L57,6.8l-0.1-0.1c-0.1-0.1-0.1-0.2-0.3-0.3c-0.5-0.4-0.9-0.7-1.3-0.8c-0.4-0.2-0.7-0.2-1-0.2c-0.2,0-0.4,0-0.6,0.1
		c-0.1,0-0.1,0.1-0.2,0.1c0,0,0,0-0.1,0c0,0,0,0-0.1,0.1c-0.1,0-0.1,0.1-0.2,0.1c0,0.1-0.1,0.3-0.1,0.4c-0.1,0.2-0.1,0.3-0.1,0.5
		c0,0.1,0,0.1,0.1,0.2l0,0C53,7,53,7,53,7.1s0,0.2,0,0.2c0,0.1,0,0.2-0.1,0.4c-0.1,0.1-0.1,0.2-0.1,0.4c0,0.2,0,0.3,0,0.5
		S53,9,53,9.2s0.1,0.4,0.1,0.6c0,0.2,0,0.3,0,0.4c0,0.1,0,0.2,0,0.4c0,0.1,0,0.3-0.1,0.5c0,0.2,0,0.3-0.1,0.5c0,0.1,0,0.3,0,0.4
		c0,0.1,0,0.2,0,0.3s0,0.2,0.1,0.4s0,0.2,0.1,0.4c0,0.1,0,0.2,0,0.3s0,0.2,0,0.4s0,0.4-0.1,0.6v0.1c0,0.2,0,0.5,0,0.7v0.2
		c0.1,0.1,0.1,0.3,0.1,0.4c0,0.1,0,0.2,0,0.4c0,0.1,0,0.3-0.1,0.4s0,0.3-0.1,0.4c0,0.1,0,0.3,0,0.3c0,0.1,0,0.2,0.1,0.3
		c0.1,0.1,0.1,0.2,0.1,0.3c0,0.1,0,0.1,0,0.2L53,18.2c-0.1,0.2-0.2,0.4-0.2,0.6s0.1,0.4,0.1,0.6v0.1c0,0.3,0.1,0.6,0.3,0.8
		c0.2,0.2,0.4,0.3,0.8,0.3c0.1,0.1,0.3,0.1,0.4,0.1c0.1,0,0.3,0,0.5-0.1s0.4-0.2,0.6-0.4c0.2-0.1,0.4-0.3,0.6-0.5s0.3-0.3,0.4-0.5
		h0.1c0.1,0,0.2,0,0.2,0c0.1,0,0.2,0,0.2,0c0.2,0,0.4-0.1,0.5-0.2c0.2-0.2,0.3-0.3,0.5-0.3c0.1-0.1,0.3-0.1,0.4-0.1
		c0.1,0,0.3-0.1,0.4-0.1c0.1,0,0.3-0.1,0.5-0.2c0.3-0.2,0.5-0.3,0.8-0.6c0.2-0.2,0.5-0.4,0.7-0.7c0.4-0.2,0.8-0.3,1.2-0.5
		c0.3-0.1,0.7-0.3,1-0.4c0.3-0.2,0.6-0.3,0.9-0.5c0.2-0.2,0.5-0.4,0.8-0.6c0,0.2,0,0.4,0,0.5c0,0.2,0,0.3,0.1,0.5
		c0.1,0.2,0.1,0.3,0.1,0.4s0,0.2,0,0.4c0,0.1,0,0.3-0.1,0.4s0,0.3-0.1,0.4s0,0.3,0,0.3c0,0.1,0,0.2,0.1,0.3C65,18,65,18.1,65,18.3
		c0,0.3,0,0.5-0.1,0.8s-0.1,0.5-0.1,0.8s0.1,0.6,0.3,0.8c0.2,0.2,0.5,0.3,0.8,0.3c0.1,0,0.2,0,0.3,0c0.1,0,0.2-0.1,0.4-0.1
		c0.1,0,0.2-0.1,0.3-0.2c0.1-0.1,0.1-0.2,0.1-0.3c0-0.1,0-0.1,0-0.2s0-0.1,0-0.2s0-0.2,0.1-0.2S67.1,19.6,67.1,19.5z"/>
	<path class="st0" d="M78.6,19.5c0-0.1,0-0.1,0.1-0.2c0,0,0.1-0.1,0.1-0.2s0-0.1,0-0.2s0-0.1,0-0.2s0-0.2,0.1-0.2
		c0-0.1,0.1-0.1,0.1-0.2s0-0.3,0-0.4s0-0.3,0-0.4s0-0.1,0-0.2c0,0,0-0.1,0-0.2c0,0,0-0.1,0-0.2s0-0.2,0-0.3c0-0.1,0-0.2,0-0.3
		c0-0.1,0-0.2,0-0.2c0-0.2,0-0.3,0-0.5s0-0.3,0-0.5c0,0,0-0.1,0-0.3s0-0.3,0-0.5s0-0.3,0-0.5c0-0.1,0-0.2,0-0.3s0-0.2,0.1-0.2
		s0.1-0.1,0.1-0.2c0-0.1,0,0,0-0.1v-0.1c0-0.1,0-0.2,0-0.3s0-0.3,0.1-0.4c0-0.1,0.1-0.3,0.1-0.4c0,0,0-0.1,0-0.2c0-0.1,0-0.2,0-0.3
		s0-0.2,0-0.3s0-0.2,0-0.2c0-0.1,0-0.2,0-0.3s0-0.3,0.1-0.4c0-0.2,0.1-0.3,0.1-0.4c0-0.1,0-0.3,0-0.4c0-0.2,0-0.4-0.1-0.6
		c0-0.3-0.1-0.5-0.1-0.6c0-0.3,0-0.7,0.1-1S79,6.6,79,6.3c0-0.1,0-0.2-0.1-0.3c0-0.1-0.1-0.2-0.1-0.3c0-0.1,0-0.3,0-0.4
		s0.1-0.3,0.1-0.4c0.1-0.1,0.2-0.2,0.3-0.3c0.1-0.1,0.3-0.1,0.5-0.1s0.4,0,0.5,0.1s0.2,0.2,0.3,0.4s0.1,0.3,0.2,0.5
		c0,0.2,0,0.3,0,0.5c0,0.1,0,0.1,0,0.2s0,0.2,0,0.2c0,0.1,0,0.2,0.1,0.4c0.1,0.1,0.1,0.2,0.1,0.4c0,0.2,0,0.3,0,0.5
		s-0.1,0.4-0.1,0.6s-0.1,0.4-0.1,0.6c0,0.2,0,0.3,0,0.4c0,0.1,0,0.2,0,0.4c0,0.1,0,0.3,0.1,0.5c0,0.2,0,0.3,0.1,0.5
		c0,0.1,0,0.3,0,0.4c0,0.1,0,0.2,0,0.3s0,0.2-0.1,0.4c0,0.1,0,0.2-0.1,0.3C80.8,12,80.9,12,81,12c0.1,0,0.2-0.1,0.3-0.2h0.5
		c0,0,0.1-0.1,0.1-0.2c0-0.1,0-0.1,0-0.2c0-0.1,0-0.1,0-0.2c0-0.1,0.1-0.1,0.1-0.1c0.1-0.1,0.2-0.1,0.3-0.1c0.1,0,0.2,0,0.3-0.1
		c0.1,0,0.2-0.1,0.4-0.1c0.1,0,0.3-0.1,0.4-0.2c0.1-0.1,0.2-0.2,0.4-0.3c0.1-0.1,0.3-0.2,0.4-0.3s0.3-0.2,0.5-0.3s0.4-0.1,0.5-0.2
		C85.3,9.1,85.5,9,85.7,9c0.2-0.1,0.3-0.2,0.5-0.3c0.1-0.1,0.2-0.2,0.3-0.3c0.1-0.1,0.2-0.2,0.3-0.3C86.9,8,87,7.9,87.1,7.8
		c0.1-0.1,0.2-0.2,0.4-0.2c0.3-0.1,0.5-0.2,0.7-0.3s0.3-0.1,0.3-0.2c0.1,0,0.1-0.1,0.1-0.1l0.1-0.1l0.1-0.1c0.1-0.1,0.1-0.2,0.3-0.3
		c0.5-0.4,0.9-0.7,1.3-0.8c0.4-0.2,0.7-0.2,1-0.2c0.2,0,0.4,0,0.6,0.1c0.1,0,0.1,0.1,0.2,0.1c0,0,0,0,0.1,0c0,0,0,0,0.1,0.1
		c0.1,0,0.1,0.1,0.2,0.1c0.1,0.1,0.2,0.3,0.3,0.4C93,6.5,93,6.6,93,6.8c0,0.1,0,0.1-0.1,0.2l0,0c0,0.1,0,0.1,0,0.2s0,0.2,0,0.2
		c0,0.1,0,0.2,0.1,0.4c0.1,0.1,0.1,0.2,0.1,0.4c0,0.2,0,0.3,0,0.5S92.7,9,92.7,9.2s-0.1,0.4-0.1,0.6c0,0.2,0,0.3,0,0.4
		c0,0.1,0,0.2,0,0.4c0,0.1,0,0.3,0.1,0.5c0,0.2,0,0.3,0.1,0.5c0,0.1,0,0.3,0,0.4c0,0.1,0,0.2,0,0.3s0,0.2-0.1,0.4
		c0,0.1,0,0.2-0.1,0.4c0,0.1,0,0.2,0,0.3s0,0.2,0,0.4s0,0.4,0.1,0.6v0.1c0,0.2,0,0.5,0,0.7v0.2c-0.1,0.1-0.1,0.3-0.1,0.4
		c0,0.1,0,0.2,0,0.4c0,0.1,0,0.3,0.1,0.4s0,0.3,0.1,0.4c0,0.1,0,0.3,0,0.3c0,0.1,0,0.2-0.1,0.3c-0.1,0.1-0.1,0.2-0.1,0.3
		c0,0.1,0,0.1,0,0.2l0.1,0.1c0.1,0.2,0.2,0.4,0.2,0.6s-0.1,0.4-0.1,0.6v0.1c0,0.3-0.1,0.6-0.3,0.8c-0.2,0.2-0.4,0.3-0.8,0.3
		c-0.1,0.1-0.3,0.1-0.4,0.1s-0.3,0-0.5-0.1s-0.4-0.2-0.6-0.4c-0.2-0.1-0.4-0.3-0.6-0.5s-0.3-0.3-0.4-0.5h-0.1c-0.1,0-0.2,0-0.2,0
		c-0.1,0-0.2,0-0.2,0c-0.2,0-0.4-0.1-0.5-0.2c-0.2-0.2-0.3-0.3-0.5-0.3c-0.1-0.1-0.3-0.1-0.4-0.1s-0.3-0.1-0.4-0.1s-0.3-0.1-0.5-0.2
		c-0.3-0.2-0.5-0.3-0.8-0.6c-0.2-0.2-0.5-0.4-0.7-0.7c-0.4-0.2-0.8-0.3-1.2-0.5c-0.3-0.1-0.7-0.3-1-0.4c-0.3-0.2-0.6-0.3-0.9-0.5
		c-0.2-0.2-0.5-0.4-0.8-0.6c0,0.2,0,0.4,0,0.5c0,0.2,0,0.3-0.1,0.5c-0.1,0.2-0.1,0.3-0.1,0.4s0,0.2,0,0.4c0,0.1,0,0.3,0.1,0.4
		s0,0.3,0.1,0.4s0,0.3,0,0.3c0,0.1,0,0.2-0.1,0.3c-0.1,0.1-0.1,0.2-0.1,0.3c0,0.3,0,0.5,0.1,0.8s0.1,0.5,0.1,0.8s-0.1,0.6-0.3,0.8
		c-0.2,0.2-0.5,0.3-0.8,0.3c-0.1,0-0.2,0-0.3,0c-0.1,0-0.2-0.1-0.4-0.1c-0.1,0-0.2-0.1-0.3-0.2c-0.1-0.1-0.1-0.2-0.1-0.3
		c0-0.1,0-0.1,0-0.2s0-0.1,0-0.2s0-0.2-0.1-0.2S78.6,19.6,78.6,19.5z"/>
</g>
</svg>
