<?xml version="1.0" standalone="no"?>
<!DOCTYPE svg PUBLIC "-//W3C//DTD SVG 20010904//EN"
 "http://www.w3.org/TR/2001/REC-SVG-20010904/DTD/svg10.dtd">
<svg version="1.0" xmlns="http://www.w3.org/2000/svg"
 width="700.000000pt" height="700.000000pt" viewBox="0 0 700.000000 700.000000"
 preserveAspectRatio="xMidYMid meet">
<metadata>
Created by potrace 1.11, written by Peter Selinger 2001-2013
</metadata>
<g transform="translate(0.000000,700.000000) scale(0.100000,-0.100000)"
fill="#000000" stroke="none">
<path d="M0 3498 c0 -3325 1 -3498 18 -3498 12 0 13 3 4 8 -10 7 -12 712 -10
3493 l3 3484 3485 0 3485 0 3 -3487 2 -3487 -27 -4 c-26 -4 -26 -4 5 -6 l32
-1 0 3498 0 3498 -3500 0 -3500 0 0 -3498z"/>
<path d="M6301 4466 c-9 -11 -21 -12 -54 -4 -37 8 -183 6 -192 -3 -10 -12
-106 -256 -125 -319 -12 -41 -28 -88 -35 -105 -22 -51 -35 -100 -35 -132 0
-31 -71 -153 -89 -153 -5 0 -21 4 -34 9 -22 9 -25 16 -29 89 -3 44 -11 90 -18
102 -9 17 -9 24 -1 30 8 4 5 14 -9 32 -25 32 -25 34 1 41 20 5 20 9 14 199 -4
106 -11 196 -16 199 -18 11 -450 -4 -514 -18 -16 -3 -41 -6 -54 -6 -17 1 -20
-2 -12 -10 23 -23 12 -37 -24 -32 -33 4 -36 2 -42 -28 -4 -18 -6 -35 -5 -39 1
-4 4 -46 8 -95 4 -48 8 -95 9 -103 2 -8 4 -25 4 -37 1 -21 6 -23 49 -23 l47 0
0 -277 c0 -331 3 -377 27 -465 11 -43 15 -75 10 -90 -8 -20 -8 -40 -3 -124 1
-27 59 -40 77 -18 6 8 19 14 28 14 13 0 15 -4 7 -19 -8 -14 -4 -24 18 -45 15
-14 31 -23 36 -19 4 5 5 -3 2 -17 -5 -19 -1 -29 15 -39 14 -9 17 -16 10 -23
-8 -8 -22 -3 -47 17 -28 20 -40 24 -48 16 -9 -9 -6 -13 11 -17 25 -7 29 -19 8
-27 -8 -3 -26 3 -39 13 -22 18 -26 18 -38 4 -10 -12 -10 -20 -1 -34 17 -28 -2
-34 -38 -13 -20 11 -28 23 -25 34 3 9 -1 22 -10 29 -8 7 -12 16 -9 22 3 5 0
15 -6 24 -10 11 -16 12 -26 3 -20 -17 -18 -76 4 -88 15 -9 15 -10 1 -11 -9 0
-18 -8 -21 -17 -3 -15 -2 -243 1 -263 1 -3 102 -6 226 -6 180 0 225 3 225 13
0 10 9 11 33 7 43 -9 167 -11 172 -4 12 20 6 232 -8 295 -13 54 -15 100 -11
205 6 129 9 182 12 206 1 6 26 11 61 11 32 0 63 3 68 6 12 7 51 4 95 -8 32 -8
44 -39 52 -135 3 -36 15 -93 27 -127 21 -57 21 -62 6 -78 -23 -23 -23 -91 1
-104 16 -10 16 -10 0 -11 -26 0 -22 -19 7 -32 30 -13 34 -32 5 -23 -29 9 -26
-16 5 -45 31 -29 32 -44 1 -58 -16 -7 -23 -17 -21 -29 2 -10 4 -30 4 -44 1
-23 7 -28 37 -33 25 -5 43 -3 59 8 15 10 26 12 30 6 8 -13 25 -13 25 1 0 6 -9
13 -20 16 -11 3 -20 10 -20 15 0 5 -11 21 -25 36 -15 15 -24 35 -21 45 2 10
-6 25 -22 37 -24 19 -25 22 -9 37 16 16 17 16 17 -4 0 -11 7 -24 16 -27 13 -5
14 -2 9 11 -5 10 -8 29 -9 43 -1 14 -5 28 -10 31 -5 4 -5 13 0 21 14 23 72 -4
80 -37 3 -14 10 -26 15 -26 5 -1 12 -2 17 -3 4 -1 23 -5 44 -9 20 -4 39 -15
42 -23 5 -13 9 -14 21 -4 21 17 19 86 -2 108 -29 29 -27 67 3 91 l27 21 -23
25 c-26 28 -27 27 16 48 48 25 66 6 71 -74 4 -78 9 -93 28 -85 8 3 15 1 15 -4
0 -6 -5 -10 -12 -10 -9 0 -9 -3 -1 -11 7 -7 8 -21 3 -38 -17 -50 -18 -99 -4
-105 8 -3 14 -1 14 4 0 6 6 10 14 10 8 0 17 -16 21 -37 l7 -38 20 40 c11 22
27 48 36 58 14 16 13 19 -8 42 -13 14 -29 24 -36 21 -12 -5 -34 12 -34 27 0 5
34 7 78 5 72 -5 122 5 122 23 0 17 -21 61 -27 56 -12 -13 -63 28 -73 59 -15
43 -23 224 -11 224 21 0 -3 167 -32 222 -16 30 -43 25 -52 -10 -5 -22 -8 -24
-15 -11 -6 9 -6 29 -1 46 11 38 -9 72 -29 48 -8 -9 -10 -28 -6 -48 5 -30 5
-31 -9 -13 -8 11 -15 34 -15 52 0 33 -37 74 -66 74 -7 0 -28 18 -46 41 -27 32
-33 47 -30 73 3 27 7 33 23 29 14 -4 17 -9 9 -18 -10 -12 -4 -25 13 -25 6 0 7
3 4 6 -4 4 3 20 14 35 11 16 20 42 19 57 -4 49 0 72 11 72 5 0 9 -8 8 -17 -3
-34 1 -47 10 -37 19 19 63 107 76 151 l14 45 -23 -21 c-13 -12 -30 -19 -38
-16 -14 6 -14 9 -1 37 11 21 21 28 33 25 17 -4 17 -2 4 36 -15 42 -8 62 18 52
10 -4 13 -16 11 -38 -4 -31 -3 -31 21 13 13 25 21 50 18 55 -4 6 -8 2 -10 -7
-3 -17 -23 -24 -35 -12 -3 3 -1 19 5 36 8 21 7 33 -1 41 -14 14 -15 47 -1 47
6 0 6 9 0 25 -9 23 -7 25 35 36 25 6 45 14 45 18 0 3 -11 23 -25 42 -13 20
-22 39 -20 41 6 5 2 6 -75 8 -30 1 -59 1 -65 -1 -5 -2 -20 2 -31 9 -18 9 -24
9 -33 -2z m-961 -216 c11 -22 18 -40 16 -40 -5 0 -46 65 -46 74 0 15 11 3 30
-34z m-112 -14 c12 -11 22 -25 22 -33 0 -24 45 -123 56 -123 6 0 17 -7 24 -15
7 -8 20 -15 30 -15 9 0 17 -7 17 -15 0 -18 -27 -29 -40 -16 -15 15 -37 1 -37
-24 0 -19 -40 -75 -54 -75 -3 0 -5 26 -3 58 2 57 2 57 -25 54 -31 -3 -40 21
-13 32 12 4 6 14 -25 42 -31 28 -44 34 -52 26 -9 -9 -19 3 -40 46 -15 31 -28
58 -28 59 0 1 18 -4 40 -12 22 -8 40 -12 40 -9 0 2 9 0 20 -6 16 -8 20 -8 20
3 0 8 -7 20 -15 27 -8 7 -15 19 -15 26 0 17 43 0 78 -30z m172 -126 c8 -5 12
-10 8 -10 -5 0 -10 1 -11 3 -2 1 -11 -4 -19 -10 -15 -13 -28 -8 -28 9 0 5 5 6
10 3 6 -3 10 -1 10 4 0 13 10 14 30 1z m64 -6 c9 -3 14 -10 11 -15 -7 -10 -35
0 -35 12 0 11 3 11 24 3z m60 -9 c3 -9 0 -15 -9 -15 -9 0 -12 6 -9 15 4 8 7
15 9 15 2 0 5 -7 9 -15z m493 -115 c-2 -23 -6 -24 -30 -6 -14 11 -15 15 -5 19
26 11 37 7 35 -13z m363 -41 c0 -5 -7 -9 -15 -9 -15 0 -20 12 -9 23 8 8 24 -1
24 -14z m-106 -115 c4 -10 1 -14 -6 -12 -15 5 -23 28 -10 28 5 0 13 -7 16 -16z
m-64 -9 c11 -13 10 -14 -4 -9 -9 3 -16 10 -16 15 0 13 6 11 20 -6z m-140 -5
c0 -5 -5 -10 -11 -10 -5 0 -7 5 -4 10 3 6 8 10 11 10 2 0 4 -4 4 -10z m-525
-190 c3 -5 1 -10 -4 -10 -6 0 -11 5 -11 10 0 6 2 10 4 10 3 0 8 -4 11 -10z
m110 -40 c24 -9 26 -14 21 -52 -6 -51 -3 -45 -19 -51 -10 -4 -12 3 -9 24 2 16
0 35 -5 42 -12 14 -24 47 -18 47 2 0 15 -4 30 -10z m-60 -30 c-3 -5 -12 -10
-18 -10 -7 0 -6 4 3 10 19 12 23 12 15 0z m134 -7 c-4 -24 2 -43 12 -37 13 8
29 -13 29 -39 0 -14 -4 -16 -19 -7 -14 7 -20 7 -23 -1 -2 -7 -9 -5 -17 5 -12
14 -12 16 4 10 15 -6 17 -4 12 12 -3 10 -9 29 -13 42 -4 13 -2 22 5 22 6 0 10
-3 10 -7z m-232 -85 c-3 -8 -6 -5 -6 6 -1 11 2 17 5 13 3 -3 4 -12 1 -19z
m346 -13 c0 -6 -7 -11 -16 -13 -12 -3 -15 1 -11 13 7 17 25 17 27 0z m701
-183 c3 -24 0 -30 -9 -22 -7 6 -11 21 -10 35 2 13 -3 46 -11 71 -8 26 -14 52
-13 58 2 19 40 -107 43 -142z m-1010 107 c-3 -5 -10 -7 -15 -3 -5 3 -7 10 -3
15 3 5 10 7 15 3 5 -3 7 -10 3 -15z m-5 -69 c12 -13 11 -15 -10 -21 -29 -7
-29 -8 -35 26 -10 57 -8 65 13 35 9 -14 24 -32 32 -40z m48 8 c-3 -7 -5 -2 -5
12 0 14 2 19 5 13 2 -7 2 -19 0 -25z m50 -274 c-3 -3 -12 -4 -19 -1 -8 3 -5 6
6 6 11 1 17 -2 13 -5z m70 -50 c-3 -3 -12 -4 -19 -1 -8 3 -5 6 6 6 11 1 17 -2
13 -5z m-497 -154 c0 -13 -1 -13 -10 0 -5 8 -10 22 -10 30 0 13 1 13 10 0 5
-8 10 -22 10 -30z m255 -100 c21 -23 4 -27 -19 -4 -18 17 -20 24 -8 24 5 0 17
-9 27 -20z"/>
<path d="M5174 4179 c-4 -7 1 -18 10 -25 11 -8 13 -14 7 -19 -17 -10 -13 -25
7 -25 21 0 42 18 42 37 0 7 -6 13 -14 13 -8 0 -21 7 -30 15 -11 11 -17 12 -22
4z"/>
<path d="M2373 4418 c-45 -3 -90 -11 -101 -17 -14 -7 -29 -7 -50 1 -26 10 -37
9 -66 -5 -31 -14 -75 -72 -64 -83 3 -2 18 0 36 5 22 7 34 6 41 -3 6 -7 9 -15
6 -17 -2 -3 -5 -21 -7 -42 -2 -36 -11 -47 -23 -27 -10 16 -22 11 -28 -11 -3
-12 -10 -18 -16 -14 -7 3 -8 0 -5 -9 10 -27 -15 -18 -29 11 l-14 26 -12 -35
c-6 -19 -18 -35 -27 -35 -10 0 -11 4 -4 11 5 5 10 19 10 30 0 19 0 19 -14 1
-12 -16 -16 -17 -30 -6 -23 19 -21 44 3 36 14 -4 20 -1 23 12 2 12 13 18 33
19 17 1 33 2 37 3 4 1 -2 18 -14 38 -12 20 -22 48 -22 62 -1 22 -7 27 -53 37
l-52 12 -11 -52 c-7 -28 -13 -114 -15 -191 -2 -77 -7 -157 -10 -177 -6 -34 -4
-39 17 -47 19 -7 24 -5 26 10 4 22 15 24 43 8 30 -15 39 -49 23 -81 -8 -15
-14 -43 -14 -63 0 -19 -2 -35 -4 -35 -9 0 -86 83 -86 94 -1 16 -30 -66 -30
-85 0 -24 12 -26 130 -28 147 -2 159 3 182 69 11 30 23 69 27 86 5 18 12 37
15 43 7 11 71 41 84 40 4 -1 44 -1 90 0 74 1 86 4 107 26 14 13 25 21 25 18 0
-4 13 5 28 20 35 34 56 21 40 -25 -6 -16 -13 -27 -16 -23 -8 8 -42 -26 -42
-42 0 -7 -5 -13 -11 -13 -24 0 -61 -58 -83 -128 -5 -16 -3 -22 7 -22 13 0 27
-20 27 -39 0 -4 -12 -8 -27 -8 -16 0 -35 -1 -43 -2 -17 -1 -91 -149 -109 -218
-7 -23 -18 -46 -25 -50 -20 -11 -66 -94 -66 -119 0 -12 -8 -28 -17 -35 -9 -8
-61 -106 -115 -219 -54 -113 -130 -268 -170 -345 -66 -130 -68 -138 -37 -107
18 18 34 43 34 55 0 15 6 22 18 21 13 -2 15 1 7 11 -6 7 -7 16 -3 18 16 10 85
-2 102 -17 19 -17 106 -23 96 -7 -3 5 5 17 17 25 20 15 23 14 38 -9 12 -19 15
-37 10 -76 -8 -60 2 -69 50 -44 30 15 33 15 52 -1 12 -12 17 -26 14 -39 -4
-14 2 -10 20 13 30 38 120 86 131 70 3 -6 -1 -16 -10 -23 -21 -15 -22 -31 -1
-39 8 -3 13 -10 10 -15 -3 -5 1 -12 10 -15 8 -3 13 -2 9 3 -9 16 7 42 23 36
23 -9 102 50 102 77 0 4 4 8 10 8 13 0 38 -61 32 -81 -4 -17 -42 -39 -66 -39
-20 0 -41 -29 -30 -40 5 -5 161 -11 346 -13 l336 -3 1 135 c1 110 5 239 10
349 1 6 7 12 14 12 9 0 12 23 11 83 0 45 -3 87 -6 93 -8 11 -241 12 -275 1
-26 -10 -55 -87 -57 -156 -1 -34 -9 -60 -29 -89 -15 -23 -31 -42 -35 -43 -4 0
-16 -2 -27 -4 -71 -11 -129 -16 -193 -19 -70 -3 -72 -2 -65 18 4 12 6 35 5 52
-1 22 6 38 28 59 17 16 30 33 30 39 0 5 18 37 39 70 22 34 52 88 67 121 15 33
33 66 41 73 7 7 17 32 23 55 6 23 15 49 20 57 6 8 22 39 35 67 14 29 37 72 51
94 14 23 27 59 28 80 1 25 10 46 24 59 26 24 64 95 60 113 -1 7 15 30 35 52
24 25 35 45 31 55 -18 42 -15 50 44 107 66 65 100 137 108 233 l5 55 -53 18
c-93 32 -124 33 -152 2 -24 -25 -25 -25 -31 -6 -7 22 -25 29 -25 9 0 -6 -8 -4
-19 6 -14 12 -20 14 -23 5 -3 -9 -12 -10 -35 -1 -27 9 -34 8 -48 -8 -14 -15
-21 -17 -36 -7 -14 9 -26 9 -48 0 -23 -8 -31 -8 -35 2 -3 9 -37 15 -103 19
-166 11 -185 12 -270 4z m537 -57 c25 9 34 9 40 -1 4 -7 13 -9 20 -5 17 11 3
-57 -16 -71 -9 -7 -10 -14 -3 -21 7 -7 5 -14 -5 -22 -12 -10 -20 -10 -38 3
-12 9 -33 16 -46 16 -20 0 -22 4 -16 23 4 12 6 37 6 56 -1 26 1 31 12 22 9 -8
22 -8 46 0z m310 -75 c0 -6 -7 -1 -15 10 -8 10 -15 23 -15 28 0 6 7 1 15 -10
8 -10 15 -23 15 -28z m-412 -49 c-2 -15 2 -21 12 -19 8 2 12 0 8 -4 -4 -4 -3
-13 3 -21 13 -15 13 -15 -17 -18 -17 -2 -20 2 -16 18 5 20 5 20 -25 -1 -17
-12 -33 -19 -37 -15 -3 3 -6 -1 -6 -10 0 -9 -5 -19 -12 -23 -8 -5 -9 -2 -5 9
4 10 2 17 -5 17 -13 0 -2 61 13 71 6 4 20 -2 31 -13 19 -19 21 -19 37 -4 15
16 15 18 -2 27 -15 9 -16 13 -6 25 11 13 14 13 21 -1 5 -8 8 -25 6 -38z m-608
-68 c15 -28 5 -23 -15 7 -9 15 -12 23 -6 20 6 -4 16 -16 21 -27z m-145 -39 c3
-5 1 -10 -4 -10 -6 0 -11 5 -11 10 0 6 2 10 4 10 3 0 8 -4 11 -10z m-30 -10
c-3 -5 -12 -10 -18 -10 -7 0 -6 4 3 10 19 12 23 12 15 0z m909 -16 c3 -8 2
-12 -4 -9 -6 3 -10 10 -10 16 0 14 7 11 14 -7z m-274 -26 c0 -5 -4 -8 -10 -8
-5 0 -10 10 -10 23 0 18 2 19 10 7 5 -8 10 -18 10 -22z m-413 0 c-3 -8 -6 -5
-6 6 -1 11 2 17 5 13 3 -3 4 -12 1 -19z m213 -40 c0 -6 -7 -5 -15 2 -8 7 -15
17 -15 22 0 6 7 5 15 -2 8 -7 15 -17 15 -22z m587 -60 c-3 -8 -6 -5 -6 6 -1
11 2 17 5 13 3 -3 4 -12 1 -19z m-62 -44 c-8 -20 -13 -39 -10 -44 2 -4 -7 -5
-21 -2 -23 4 -88 -13 -206 -53 -25 -9 -40 -10 -44 -3 -4 5 -17 8 -31 5 -15 -3
-22 0 -20 7 2 6 28 11 58 12 91 1 99 3 123 29 17 18 30 23 50 19 22 -4 36 3
67 31 21 19 41 35 44 35 3 0 -2 -16 -10 -36z m-300 6 c3 -6 -1 -7 -9 -4 -18 7
-21 14 -7 14 6 0 13 -4 16 -10z m125 -14 c0 -3 -4 -8 -10 -11 -5 -3 -10 -1
-10 4 0 6 5 11 10 11 6 0 10 -2 10 -4z m-174 -54 c-4 -3 -14 2 -24 12 -16 18
-16 18 6 6 13 -6 21 -14 18 -18z m-16 -38 c0 -2 -9 -4 -20 -4 -11 0 -20 4 -20
9 0 5 9 7 20 4 11 -3 20 -7 20 -9z m-63 -33 c10 -16 9 -20 -12 -24 -31 -5 -37
1 -24 24 12 24 21 24 36 0z m138 -7 c-10 -7 -22 -11 -27 -8 -5 3 -1 12 9 19
10 7 22 11 27 8 5 -4 1 -12 -9 -19z m-75 11 c0 -2 -10 -9 -22 -15 -22 -11 -22
-10 -4 4 21 17 26 19 26 11z m394 -701 c24 -24 19 -30 -6 -8 -13 10 -25 20
-27 21 -2 2 1 3 7 3 6 0 18 -7 26 -16z m-404 -18 c0 -2 -11 -11 -25 -20 -14
-9 -25 -13 -25 -8 0 5 10 14 23 20 27 13 27 13 27 8z m611 -107 c4 -28 1 -38
-26 -79 -16 -25 -34 -48 -38 -51 -5 -4 3 -9 17 -13 16 -4 24 -11 20 -17 -5 -8
-8 -8 -13 0 -7 11 -31 16 -63 13 -10 -1 -20 -13 -24 -27 -8 -32 -26 -46 -62
-49 -17 -1 -38 -9 -48 -16 -16 -14 -16 -13 -6 7 7 12 11 28 10 35 -2 7 4 12
13 10 9 -1 29 18 49 50 18 29 34 54 35 56 2 1 14 -2 28 -9 21 -9 29 -8 56 12
17 12 31 29 31 36 0 16 -26 17 -35 3 -10 -16 -35 8 -29 25 11 27 82 39 85 14z
m-148 -11 c6 -17 -10 -48 -24 -48 -7 0 -8 7 -4 18 4 9 8 23 8 30 0 6 4 12 8
12 4 0 9 -6 12 -12z m-603 -20 c0 -4 -11 -10 -25 -14 -14 -3 -29 -12 -33 -19
-6 -11 -11 -11 -31 0 l-24 13 29 15 c29 16 84 19 84 5z m-120 -45 c0 -12 -43
-53 -55 -53 -6 0 -26 -18 -44 -41 -18 -22 -35 -38 -38 -35 -3 3 0 13 8 22 8
10 13 19 12 21 -9 12 3 24 42 43 25 12 45 28 45 36 0 8 7 14 15 14 8 0 15 -3
15 -7z m445 -53 c-3 -5 -12 -10 -18 -10 -7 0 -6 4 3 10 19 12 23 12 15 0z
m-285 -17 c-1 -15 -25 -38 -42 -41 -26 -4 -22 21 5 34 28 14 37 16 37 7z
m-200 -13 c0 -5 -5 -10 -11 -10 -5 0 -7 5 -4 10 3 6 8 10 11 10 2 0 4 -4 4
-10z m630 -20 c0 -5 -4 -10 -10 -10 -5 0 -10 5 -10 10 0 6 5 10 10 10 6 0 10
-4 10 -10z m-35 -50 c23 -1 58 -24 48 -33 -3 -4 -17 -7 -30 -7 -14 0 -21 -4
-18 -10 13 -21 13 -49 -1 -60 -7 -7 -11 -16 -8 -21 3 -5 3 -9 0 -9 -3 0 -13
16 -22 35 -9 19 -21 35 -26 35 -5 0 -6 5 -2 11 3 6 -5 3 -20 -6 -15 -10 -29
-15 -33 -11 -3 3 -1 6 5 6 7 0 12 6 12 13 0 7 13 18 29 24 24 9 29 15 24 34
-5 20 -3 22 8 12 7 -7 22 -13 34 -13z m-169 -65 c-10 -7 -15 -18 -11 -24 4 -7
-5 -11 -24 -11 -17 0 -31 4 -31 9 0 19 32 41 58 41 25 -1 26 -2 8 -15z m408
-30 c25 -38 18 -53 -9 -20 -14 17 -25 33 -25 38 0 15 18 6 34 -18z"/>
<path d="M3960 4418 c-41 -4 -86 -12 -99 -18 -16 -7 -27 -7 -36 0 -23 19 -74
7 -104 -25 -15 -16 -31 -38 -34 -48 -5 -14 -2 -16 19 -11 54 14 59 11 57 -26
-3 -89 -3 -86 -14 -67 -14 24 -26 21 -41 -10 -18 -37 -32 -38 -48 -6 l-13 28
-7 -27 c-11 -37 -20 -49 -31 -42 -5 3 -6 11 -2 17 4 7 8 19 10 27 1 11 -2 10
-12 -3 -11 -15 -17 -16 -34 -8 -22 12 -18 43 4 35 7 -3 16 3 20 15 5 16 13 19
40 17 40 -4 43 5 14 45 -14 20 -19 38 -15 53 5 20 1 26 -24 35 -17 5 -30 8
-30 6 0 -3 -11 0 -24 5 -22 8 -26 6 -35 -23 -13 -40 -22 -128 -25 -268 -1 -57
-4 -108 -5 -114 -2 -5 -3 -20 -2 -32 1 -18 7 -23 27 -23 14 0 23 4 19 10 -12
19 25 22 47 3 26 -20 27 -39 6 -121 l-13 -52 -40 42 c-21 24 -37 48 -36 53 1
6 -1 6 -6 2 -4 -5 -8 -12 -9 -15 0 -4 -4 -14 -8 -22 -3 -9 -8 -29 -9 -45 l-2
-30 95 -3 c52 -2 118 -1 146 3 l52 6 21 62 c12 34 25 75 29 91 13 51 50 69
149 73 109 5 127 8 149 31 10 9 20 17 24 17 3 0 16 10 30 23 29 27 45 16 35
-26 -4 -19 -11 -29 -19 -26 -7 3 -20 -5 -28 -18 -9 -13 -31 -39 -49 -59 -39
-41 -75 -129 -53 -129 15 0 38 -37 27 -43 -5 -3 -24 -4 -44 -3 -36 3 -37 2
-77 -78 -22 -45 -46 -101 -52 -126 -7 -24 -25 -60 -42 -78 -31 -36 -44 -64
-53 -109 -2 -15 -11 -31 -20 -36 -9 -5 -36 -52 -62 -105 -25 -53 -98 -203
-161 -332 -64 -129 -118 -239 -121 -245 -2 -5 10 2 26 15 19 16 29 32 27 45
-2 11 5 29 14 41 21 25 77 26 113 0 28 -19 99 -22 99 -3 0 7 9 18 20 25 32 20
52 -20 44 -91 -7 -64 -4 -66 52 -40 36 17 36 17 55 -6 16 -19 17 -27 7 -40
-10 -13 -10 -14 2 -4 11 10 17 10 29 0 14 -11 14 -10 1 6 -13 17 -12 21 10 38
14 11 41 28 62 39 28 15 38 17 47 7 7 -9 5 -16 -10 -25 -19 -12 -19 -13 -2
-37 26 -35 41 -38 35 -8 -4 23 -2 25 18 20 31 -8 89 29 103 66 10 27 24 20 37
-18 15 -46 0 -71 -50 -85 -39 -11 -54 -36 -27 -45 20 -7 667 -13 667 -6 0 3 3
95 5 204 3 109 7 202 10 207 3 5 1 11 -4 15 -7 3 -7 15 -1 29 5 13 6 27 3 30
-4 3 1 6 11 6 15 0 16 11 14 92 l-3 93 -125 1 c-82 0 -134 -4 -151 -12 -29
-14 -50 -70 -55 -147 -2 -26 -10 -60 -18 -75 -16 -31 -52 -66 -69 -67 -7 -1
-32 -4 -57 -8 -25 -4 -84 -9 -132 -11 -84 -3 -87 -2 -77 17 6 11 9 32 7 48 -3
22 2 35 24 56 15 15 28 33 28 40 0 7 15 34 34 60 37 53 86 142 86 158 0 5 14
30 30 54 17 24 30 57 30 73 0 15 3 28 8 28 8 0 25 31 61 110 11 25 30 62 42
83 12 22 22 53 21 69 0 22 7 37 28 55 27 22 57 86 51 108 -1 5 4 14 11 20 8 5
26 26 41 46 23 31 25 37 13 55 -18 26 -4 54 44 86 58 39 106 145 112 248 3 43
2 44 -32 55 -19 5 -45 16 -57 23 -42 23 -123 6 -123 -27 -1 -13 -4 -12 -16 4
-11 15 -27 20 -62 21 -27 0 -54 4 -60 8 -8 5 -20 -2 -32 -16 -16 -19 -21 -20
-29 -9 -6 10 -20 12 -49 7 -24 -3 -42 -2 -44 4 -2 6 -56 13 -123 16 -66 3
-133 6 -150 8 -16 1 -64 -2 -105 -6z m585 -58 c5 -8 12 -7 22 1 12 11 13 8 7
-17 -4 -16 -7 -34 -7 -41 0 -7 -6 -14 -13 -17 -8 -3 -12 -11 -9 -18 3 -7 1
-19 -3 -26 -7 -10 -14 -10 -38 3 -16 8 -39 15 -52 15 -19 0 -21 3 -12 19 5 11
10 34 10 51 0 25 3 30 18 26 9 -3 24 -1 32 4 20 13 37 13 45 0z m265 -61 c15
-28 5 -23 -15 7 -9 15 -12 23 -6 20 6 -4 16 -16 21 -27z m-408 -59 c0 -21 3
-30 12 -27 7 3 13 -5 14 -19 2 -26 1 -27 -22 -18 -9 3 -16 13 -16 21 0 11 -6
10 -26 -6 -15 -11 -30 -18 -35 -15 -5 3 -9 -2 -9 -10 0 -8 -5 -18 -11 -21 -6
-4 -9 -1 -8 6 1 8 -1 22 -5 31 -8 18 9 58 25 58 6 0 17 -7 26 -15 14 -14 17
-14 35 2 17 16 18 18 4 21 -18 4 -18 4 -10 27 10 25 27 2 26 -35z m-594 -95
c-3 -3 -9 2 -12 12 -6 14 -5 15 5 6 7 -7 10 -15 7 -18z m579 3 c-3 -8 -6 -5
-6 6 -1 11 2 17 5 13 3 -3 4 -12 1 -19z m-762 -28 c-3 -5 -11 -10 -16 -10 -6
0 -7 5 -4 10 3 6 11 10 16 10 6 0 7 -4 4 -10z m903 -25 c-3 -3 -9 2 -12 12 -6
14 -5 15 5 6 7 -7 10 -15 7 -18z m-278 -10 c0 -8 -4 -15 -10 -15 -5 0 -7 7 -4
15 4 8 8 15 10 15 2 0 4 -7 4 -15z m-200 -35 c9 -16 8 -18 -5 -14 -8 4 -15 12
-15 20 0 20 7 17 20 -6z m593 -65 c-3 -9 -8 -14 -10 -11 -3 3 -2 9 2 15 9 16
15 13 8 -4z m-65 -62 c-12 -35 -16 -38 -53 -39 -22 -1 -60 -9 -85 -17 -25 -9
-65 -21 -89 -27 -28 -7 -45 -18 -48 -30 -3 -10 -13 -20 -24 -23 -25 -7 -24 9
1 23 25 13 16 34 -11 27 -21 -6 -21 -5 -13 16 4 11 15 12 46 7 58 -11 99 -2
129 27 20 18 34 23 56 20 22 -4 36 3 63 29 18 19 35 32 38 30 2 -2 -3 -21 -10
-43z m-178 -3 c0 -5 -4 -10 -10 -10 -5 0 -10 5 -10 10 0 6 5 10 10 10 6 0 10
-4 10 -10z m-170 -42 c0 -6 -6 -5 -15 2 -8 7 -15 14 -15 16 0 2 7 1 15 -2 8
-4 15 -11 15 -16z m-27 -45 c-7 -2 -19 -2 -25 0 -7 3 -2 5 12 5 14 0 19 -2 13
-5z m-49 -32 c16 -17 16 -19 -2 -24 -27 -6 -44 6 -36 26 8 22 17 21 38 -2z
m56 0 c0 -5 -7 -12 -16 -15 -14 -5 -15 -4 -4 9 14 17 20 19 20 6z m400 -696
c19 -23 8 -25 -14 -4 -11 11 -15 19 -9 19 6 0 16 -7 23 -15z m-430 -40 c-7 -8
-18 -15 -24 -15 -6 0 -2 7 8 15 25 19 32 19 16 0z m-283 -37 c-3 -8 -6 -5 -6
6 -1 11 2 17 5 13 3 -3 4 -12 1 -19z m918 -48 c7 -22 -2 -45 -36 -96 -27 -40
-28 -42 -9 -47 20 -5 28 -27 10 -27 -5 0 -10 4 -10 9 0 14 -31 22 -45 11 -6
-5 -15 -7 -18 -4 -3 3 -13 -10 -21 -30 -8 -20 -21 -37 -28 -37 -7 -1 -23 -3
-36 -4 -13 -1 -36 -12 -52 -24 -16 -11 -38 -21 -49 -21 -17 0 -19 -5 -14 -35
4 -23 2 -35 -6 -35 -6 0 -11 -8 -11 -17 -1 -11 -9 -2 -21 20 -19 37 -23 39
-55 32 -35 -6 -35 -6 -15 14 11 11 29 24 40 31 12 6 21 21 22 33 0 12 3 16 6
10 2 -7 14 -13 24 -13 11 0 29 -5 40 -11 26 -14 52 6 47 36 -4 18 -1 21 19 17
13 -3 23 1 23 8 0 6 11 26 25 44 14 18 25 38 25 44 0 15 3 15 45 -2 20 -9 35
-11 35 -5 0 5 12 21 28 34 25 22 25 24 8 31 -11 4 -21 2 -27 -7 -11 -19 -34 4
-26 26 12 30 73 42 82 15z m-151 -37 c-20 -31 -34 -27 -21 6 8 21 15 27 21 21
7 -7 7 -16 0 -27z m-598 4 c4 -4 0 -7 -8 -7 -8 0 -26 -9 -39 -19 -21 -16 -27
-17 -42 -6 -17 12 -17 14 3 28 21 15 73 17 86 4z m-131 -56 c-7 -23 -25 -29
-25 -8 0 14 21 39 28 33 2 -3 1 -14 -3 -25z m-25 -32 c0 -5 -8 -9 -17 -9 -10
0 -27 -13 -37 -29 -11 -15 -29 -34 -40 -41 -17 -10 -19 -10 -8 1 6 7 12 21 12
31 0 10 17 28 38 42 36 23 52 25 52 5z m480 -3 c0 -3 -4 -8 -10 -11 -5 -3 -10
-1 -10 4 0 6 5 11 10 11 6 0 10 -2 10 -4z m-289 -35 c-11 -20 -48 -34 -56 -21
-3 5 7 16 22 24 37 20 46 20 34 -3z m-191 -1 c0 -5 -4 -10 -10 -10 -5 0 -10 5
-10 10 0 6 5 10 10 10 6 0 10 -4 10 -10z m630 -20 c0 -4 -6 -10 -14 -13 -10
-4 -12 0 -9 14 5 18 23 18 23 -1z m-197 -111 c-22 -6 -30 -14 -27 -24 5 -11
-2 -15 -25 -15 -28 0 -30 2 -20 23 9 19 19 24 57 25 45 1 46 0 15 -9z m411
-70 c-7 -11 -44 33 -44 53 0 7 12 0 25 -15 14 -16 23 -33 19 -38z"/>
<path d="M862 4404 c-18 -7 -34 -8 -43 -3 -27 18 -122 6 -174 -20 -99 -52
-302 -287 -310 -360 -8 -84 -18 -373 -19 -588 -2 -224 6 -370 23 -415 4 -12 4
-42 -1 -67 -7 -40 -6 -48 15 -69 l24 -24 13 46 c12 43 39 65 36 30 0 -9 5 -19
12 -21 6 -3 12 2 12 11 0 9 4 16 9 16 19 0 41 -12 41 -23 0 -6 8 -19 17 -29
13 -14 14 -21 5 -30 -9 -9 -12 -9 -12 0 0 13 -30 17 -30 5 -1 -5 -10 -19 -21
-32 -15 -18 -23 -21 -31 -13 -7 7 -18 12 -25 12 -27 0 16 -59 58 -81 l41 -21
29 28 c23 22 31 25 43 15 13 -11 13 -17 -2 -47 -9 -21 -21 -33 -29 -30 -29 12
-10 -16 40 -55 101 -81 187 -101 206 -48 11 32 4 44 -17 26 -13 -10 -14 -6 -9
36 7 52 22 87 37 87 6 0 5 -10 -1 -24 -46 -101 309 -246 456 -186 20 8 79 12
173 11 118 -2 142 0 142 12 0 8 -7 20 -15 27 -20 17 -19 33 5 50 18 13 18 16
5 37 -19 28 -19 37 -1 30 19 -8 30 26 17 51 -7 13 -7 22 2 31 9 9 8 17 -2 33
-12 20 -11 24 15 44 15 13 31 21 36 18 4 -3 8 0 8 5 0 6 -6 11 -13 11 -16 0
-21 58 -7 80 8 12 10 11 10 -7 0 -12 5 -25 10 -28 6 -3 10 3 10 15 0 12 5 30
11 41 7 14 7 30 -1 55 -9 26 -9 38 0 48 7 10 8 16 1 20 -6 4 -16 -2 -22 -12
-12 -19 -12 -19 -30 -1 -21 21 -25 39 -9 39 6 0 10 8 10 19 0 20 36 36 46 20
11 -18 33 12 29 39 -2 15 -4 28 -4 30 -1 1 -10 -2 -21 -8 -14 -7 -20 -7 -20 0
0 6 -70 10 -204 10 l-204 0 -17 -92 c-20 -108 -56 -182 -94 -196 -46 -18 -117
-8 -156 22 -64 49 -68 61 -61 193 9 164 10 407 1 474 -4 34 -3 59 3 63 10 6 9
137 -2 154 -4 7 -2 12 3 12 6 0 11 15 11 33 0 20 8 41 18 50 24 22 98 35 168
31 78 -6 94 -16 92 -62 -5 -93 34 -157 109 -183 56 -19 329 -15 336 5 4 12 2
84 -7 232 -14 237 -19 290 -29 299 -7 7 -8 5 -4 -6 10 -30 -65 -52 -80 -24 -8
13 -34 22 -70 24 -7 1 -10 7 -7 15 3 8 11 13 19 10 17 -7 47 24 38 39 -4 7 -7
21 -8 32 0 10 -10 25 -23 31 -23 11 -114 10 -133 -2 -19 -11 -8 -38 40 -98 49
-62 50 -62 28 -76 -12 -8 -34 -20 -49 -27 -16 -7 -28 -15 -28 -18 0 -3 5 -3
10 0 13 8 13 -11 -1 -38 -23 -44 -37 -42 -97 11 -32 28 -33 28 -13 46 11 10
24 15 29 12 6 -3 9 5 8 17 -1 27 -25 31 -44 8 -10 -13 -11 0 -6 70 5 63 3 88
-6 94 -18 11 -34 -11 -34 -50 0 -39 -14 -45 -41 -15 -10 11 -26 22 -37 26 -15
4 -17 9 -7 20 15 18 -2 18 -27 -1 -27 -20 -36 -19 -29 5 5 17 2 20 -27 21 -18
1 -52 2 -75 4 -23 1 -55 -4 -71 -11z m661 -204 c-7 -28 -13 -25 -13 6 0 14 4
23 9 20 5 -3 7 -15 4 -26z m-239 -104 c-4 -10 3 -16 23 -19 17 -2 10 -5 -21
-6 -48 -1 -49 -1 -31 19 21 23 37 26 29 6z m-567 -372 c-3 -3 -12 -4 -19 -1
-8 3 -5 6 6 6 11 1 17 -2 13 -5z m147 -299 c-7 -17 -14 -18 -39 -9 -13 5 -14
8 -3 15 22 14 48 11 42 -6z m-111 -17 c2 -7 -4 -31 -14 -53 -12 -28 -15 -43
-7 -52 7 -9 2 -19 -18 -38 -32 -29 -44 -32 -44 -7 0 18 20 55 20 37 0 -5 7 1
16 14 13 18 14 28 5 47 -12 27 -18 28 -58 14 l-28 -10 29 24 c15 13 36 21 46
19 10 -3 21 0 24 6 9 15 23 14 29 -1z m-168 -8 c-3 -6 1 -13 10 -16 14 -6 13
-9 -5 -29 -20 -22 -23 -22 -39 -7 -25 25 -15 62 16 62 14 0 21 -4 18 -10z m80
-170 c3 -5 2 -10 -4 -10 -5 0 -13 5 -16 10 -3 6 -2 10 4 10 5 0 13 -4 16 -10z
m953 -36 c-4 -3 -12 5 -18 18 -12 22 -12 22 6 6 10 -10 15 -20 12 -24z m-1154
-159 c-4 -8 -14 -15 -23 -15 -14 1 -13 3 3 15 25 19 27 19 20 0z m354 -47
c-18 -16 -32 -34 -30 -39 1 -5 -8 -9 -20 -9 -12 0 -18 3 -15 7 4 3 2 12 -3 18
-17 21 0 47 26 42 17 -3 28 3 40 21 15 23 17 23 26 8 8 -14 3 -24 -24 -48z
m-18 -158 c0 -5 -2 -10 -4 -10 -3 0 -8 5 -11 10 -3 6 -1 10 4 10 6 0 11 -4 11
-10z m-101 -94 c0 -26 -2 -28 -8 -11 -5 11 -11 38 -15 60 l-7 40 16 -29 c8
-15 15 -42 14 -60z"/>
<path d="M1290 4401 c0 -5 7 -15 17 -22 15 -13 15 -12 4 9 -12 23 -21 28 -21
13z"/>
<path d="M1587 4404 c-8 -8 3 -34 14 -34 11 0 12 27 0 34 -4 3 -11 3 -14 0z"/>
<path d="M2061 4354 c0 -11 3 -14 6 -6 3 7 2 16 -1 19 -3 4 -6 -2 -5 -13z"/>
<path d="M3655 4361 c-3 -5 -1 -12 5 -16 5 -3 10 1 10 9 0 18 -6 21 -15 7z"/>
<path d="M6571 4344 c0 -11 3 -14 6 -6 3 7 2 16 -1 19 -3 4 -6 -2 -5 -13z"/>
<path d="M6551 4176 c-17 -53 -31 -101 -31 -106 0 -6 18 -10 40 -10 38 0 45 6
42 40 0 3 -3 41 -7 85 -3 44 -8 81 -10 83 -2 2 -17 -39 -34 -92z"/>
<path d="M5180 3051 c0 -6 4 -13 10 -16 6 -3 7 1 4 9 -7 18 -14 21 -14 7z"/>
<path d="M6370 2960 c0 -5 5 -10 10 -10 6 0 10 5 10 10 0 6 -4 10 -10 10 -5 0
-10 -4 -10 -10z"/>
<path d="M440 2879 c0 -5 5 -7 10 -4 6 3 10 8 10 11 0 2 -4 4 -10 4 -5 0 -10
-5 -10 -11z"/>
<path d="M6381 2844 c0 -11 3 -14 6 -6 3 7 2 16 -1 19 -3 4 -6 -2 -5 -13z"/>
<path d="M6196 2822 c-3 -5 1 -9 9 -9 8 0 12 4 9 9 -3 4 -7 8 -9 8 -2 0 -6 -4
-9 -8z"/>
<path d="M6574 2819 c-3 -5 0 -16 6 -24 10 -12 10 -18 0 -30 -7 -8 -10 -26 -8
-39 4 -21 0 -26 -23 -31 -28 -6 -41 -35 -16 -35 7 0 30 -9 52 -20 63 -32 77
-28 71 23 -2 23 1 56 7 74 8 25 8 38 -3 57 -13 25 -33 26 -28 3 2 -7 -2 -14
-7 -17 -6 -3 -11 5 -13 17 -3 23 -28 38 -38 22z"/>
<path d="M6208 2781 c-21 -9 -38 -21 -38 -26 0 -6 16 -26 35 -45 19 -19 44
-49 55 -67 28 -43 60 -35 60 14 0 54 -20 121 -38 127 -10 3 -21 8 -27 10 -5 2
-27 -3 -47 -13z"/>
<path d="M1930 2736 c0 -2 6 -21 14 -43 11 -31 11 -44 2 -61 -9 -17 -14 -20
-24 -10 -7 7 -12 18 -12 25 0 7 -4 13 -10 13 -10 0 -14 -18 -10 -57 1 -16 -4
-23 -17 -24 -24 -1 61 -27 113 -35 36 -5 42 -3 47 15 2 11 -1 28 -8 38 -11 15
-11 24 1 52 18 43 18 48 -3 54 -10 3 -35 12 -55 21 -21 9 -38 15 -38 12z"/>
<path d="M2142 2720 c-7 -11 -9 -20 -4 -20 10 0 32 22 32 32 0 15 -15 8 -28
-12z"/>
<path d="M3536 2696 c12 -35 13 -49 4 -66 -11 -21 -12 -21 -25 -3 -8 10 -15
25 -15 33 -1 10 -5 7 -12 -7 -13 -26 -2 -93 15 -94 7 0 19 -2 27 -4 82 -17 90
-17 96 0 4 9 1 27 -6 40 -11 20 -10 31 4 64 12 31 13 41 3 41 -6 1 -30 9 -52
20 -22 11 -43 19 -47 20 -4 0 0 -20 8 -44z"/>
<path d="M3742 2728 c-19 -19 -14 -30 8 -18 11 6 20 15 20 20 0 14 -14 12 -28
-2z"/>
<path d="M2079 2688 c0 -2 -2 -22 -5 -45 -5 -35 -3 -43 10 -43 9 0 16 6 17 13
0 6 2 20 4 31 4 22 -4 46 -16 46 -5 0 -9 -1 -10 -2z"/>
<path d="M3676 2679 c-2 -8 -6 -29 -9 -47 -3 -26 0 -32 12 -30 10 2 17 16 19
37 4 35 -13 66 -22 40z"/>
<path d="M3750 2604 c-22 -15 -44 -21 -60 -18 -20 4 -26 0 -27 -16 -1 -16 4
-20 33 -20 28 0 36 5 44 25 8 22 13 24 29 16 11 -6 21 -16 24 -23 3 -10 7 -10
20 1 23 19 21 36 -5 48 -18 8 -30 6 -58 -13z"/>
<path d="M2140 2599 c-19 -11 -42 -18 -52 -15 -10 2 -18 -4 -21 -15 -4 -16 1
-19 34 -19 32 0 39 3 39 20 0 25 26 26 52 3 17 -15 19 -15 32 3 10 13 11 23 4
31 -14 18 -46 14 -88 -8z"/>
<path d="M2330 2611 c0 -5 5 -13 10 -16 6 -3 10 -2 10 4 0 5 -4 13 -10 16 -5
3 -10 2 -10 -4z"/>
<path d="M1602 2590 c-17 -27 -15 -37 6 -42 15 -4 18 0 17 23 -2 38 -8 42 -23
19z"/>
<path d="M3460 2580 c0 -5 5 -10 11 -10 5 0 7 5 4 10 -3 6 -8 10 -11 10 -2 0
-4 -4 -4 -10z"/>
<path d="M2315 2565 c-19 -15 -18 -15 15 -13 19 2 34 8 33 13 -3 17 -27 17
-48 0z"/>
<path d="M3905 2566 c-19 -15 -18 -15 18 -16 27 0 37 4 35 13 -7 18 -31 20
-53 3z"/>
<path d="M838 2563 c7 -3 16 -2 19 1 4 3 -2 6 -13 5 -11 0 -14 -3 -6 -6z"/>
<path d="M2458 2563 c6 -2 18 -2 25 0 6 3 1 5 -13 5 -14 0 -19 -2 -12 -5z"/>
<path d="M4050 2565 c0 -7 30 -13 34 -7 3 4 -4 9 -15 9 -10 1 -19 0 -19 -2z"/>
<path d="M6590 2544 c0 -8 5 -12 10 -9 6 3 10 10 10 16 0 5 -4 9 -10 9 -5 0
-10 -7 -10 -16z"/>
<path d="M98 3 c6 -2 18 -2 25 0 6 3 1 5 -13 5 -14 0 -19 -2 -12 -5z"/>
<path d="M268 3 c6 -2 18 -2 25 0 6 3 1 5 -13 5 -14 0 -19 -2 -12 -5z"/>
<path d="M338 3 c6 -2 18 -2 25 0 6 3 1 5 -13 5 -14 0 -19 -2 -12 -5z"/>
<path d="M508 3 c6 -2 18 -2 25 0 6 3 1 5 -13 5 -14 0 -19 -2 -12 -5z"/>
<path d="M588 3 c7 -3 16 -2 19 1 4 3 -2 6 -13 5 -11 0 -14 -3 -6 -6z"/>
<path d="M628 3 c7 -3 16 -2 19 1 4 3 -2 6 -13 5 -11 0 -14 -3 -6 -6z"/>
<path d="M668 3 c6 -2 18 -2 25 0 6 3 1 5 -13 5 -14 0 -19 -2 -12 -5z"/>
<path d="M738 3 c6 -2 18 -2 25 0 6 3 1 5 -13 5 -14 0 -19 -2 -12 -5z"/>
<path d="M908 3 c6 -2 18 -2 25 0 6 3 1 5 -13 5 -14 0 -19 -2 -12 -5z"/>
<path d="M978 3 c6 -2 18 -2 25 0 6 3 1 5 -13 5 -14 0 -19 -2 -12 -5z"/>
<path d="M1148 3 c6 -2 18 -2 25 0 6 3 1 5 -13 5 -14 0 -19 -2 -12 -5z"/>
<path d="M1218 3 c6 -2 18 -2 25 0 6 3 1 5 -13 5 -14 0 -19 -2 -12 -5z"/>
<path d="M1268 3 c6 -2 18 -2 25 0 6 3 1 5 -13 5 -14 0 -19 -2 -12 -5z"/>
<path d="M1348 3 c6 -2 18 -2 25 0 6 3 1 5 -13 5 -14 0 -19 -2 -12 -5z"/>
<path d="M1428 3 c6 -2 18 -2 25 0 6 3 1 5 -13 5 -14 0 -19 -2 -12 -5z"/>
<path d="M1508 3 c6 -2 18 -2 25 0 6 3 1 5 -13 5 -14 0 -19 -2 -12 -5z"/>
<path d="M1588 3 c6 -2 18 -2 25 0 6 3 1 5 -13 5 -14 0 -19 -2 -12 -5z"/>
<path d="M1668 3 c6 -2 18 -2 25 0 6 3 1 5 -13 5 -14 0 -19 -2 -12 -5z"/>
<path d="M1748 3 c6 -2 18 -2 25 0 6 3 1 5 -13 5 -14 0 -19 -2 -12 -5z"/>
<path d="M1828 3 c6 -2 18 -2 25 0 6 3 1 5 -13 5 -14 0 -19 -2 -12 -5z"/>
<path d="M2028 3 c6 -2 18 -2 25 0 6 3 1 5 -13 5 -14 0 -19 -2 -12 -5z"/>
<path d="M2098 3 c6 -2 18 -2 25 0 6 3 1 5 -13 5 -14 0 -19 -2 -12 -5z"/>
<path d="M2268 3 c6 -2 18 -2 25 0 6 3 1 5 -13 5 -14 0 -19 -2 -12 -5z"/>
<path d="M2338 3 c6 -2 18 -2 25 0 6 3 1 5 -13 5 -14 0 -19 -2 -12 -5z"/>
<path d="M2508 3 c6 -2 18 -2 25 0 6 3 1 5 -13 5 -14 0 -19 -2 -12 -5z"/>
<path d="M2578 3 c6 -2 18 -2 25 0 6 3 1 5 -13 5 -14 0 -19 -2 -12 -5z"/>
<path d="M2748 3 c6 -2 18 -2 25 0 6 3 1 5 -13 5 -14 0 -19 -2 -12 -5z"/>
<path d="M2818 3 c6 -2 18 -2 25 0 6 3 1 5 -13 5 -14 0 -19 -2 -12 -5z"/>
<path d="M2988 3 c6 -2 18 -2 25 0 6 3 1 5 -13 5 -14 0 -19 -2 -12 -5z"/>
<path d="M3058 3 c6 -2 18 -2 25 0 6 3 1 5 -13 5 -14 0 -19 -2 -12 -5z"/>
<path d="M3198 3 c7 -3 16 -2 19 1 4 3 -2 6 -13 5 -11 0 -14 -3 -6 -6z"/>
<path d="M3268 3 c6 -2 18 -2 25 0 6 3 1 5 -13 5 -14 0 -19 -2 -12 -5z"/>
<path d="M3348 3 c6 -2 18 -2 25 0 6 3 1 5 -13 5 -14 0 -19 -2 -12 -5z"/>
<path d="M3428 3 c6 -2 18 -2 25 0 6 3 1 5 -13 5 -14 0 -19 -2 -12 -5z"/>
<path d="M3508 3 c6 -2 18 -2 25 0 6 3 1 5 -13 5 -14 0 -19 -2 -12 -5z"/>
<path d="M3588 3 c6 -2 18 -2 25 0 6 3 1 5 -13 5 -14 0 -19 -2 -12 -5z"/>
<path d="M3668 3 c6 -2 18 -2 25 0 6 3 1 5 -13 5 -14 0 -19 -2 -12 -5z"/>
<path d="M3748 3 c6 -2 18 -2 25 0 6 3 1 5 -13 5 -14 0 -19 -2 -12 -5z"/>
<path d="M3828 3 c7 -3 16 -2 19 1 4 3 -2 6 -13 5 -11 0 -14 -3 -6 -6z"/>
<path d="M3868 3 c6 -2 18 -2 25 0 6 3 1 5 -13 5 -14 0 -19 -2 -12 -5z"/>
<path d="M3938 3 c6 -2 18 -2 25 0 6 3 1 5 -13 5 -14 0 -19 -2 -12 -5z"/>
<path d="M4108 3 c6 -2 18 -2 25 0 6 3 1 5 -13 5 -14 0 -19 -2 -12 -5z"/>
<path d="M4178 3 c6 -2 18 -2 25 0 6 3 1 5 -13 5 -14 0 -19 -2 -12 -5z"/>
<path d="M4348 3 c6 -2 18 -2 25 0 6 3 1 5 -13 5 -14 0 -19 -2 -12 -5z"/>
<path d="M4428 3 c7 -3 16 -2 19 1 4 3 -2 6 -13 5 -11 0 -14 -3 -6 -6z"/>
<path d="M4468 3 c7 -3 16 -2 19 1 4 3 -2 6 -13 5 -11 0 -14 -3 -6 -6z"/>
<path d="M4508 3 c6 -2 18 -2 25 0 6 3 1 5 -13 5 -14 0 -19 -2 -12 -5z"/>
<path d="M4578 3 c6 -2 18 -2 25 0 6 3 1 5 -13 5 -14 0 -19 -2 -12 -5z"/>
<path d="M4748 3 c6 -2 18 -2 25 0 6 3 1 5 -13 5 -14 0 -19 -2 -12 -5z"/>
<path d="M4818 3 c6 -2 18 -2 25 0 6 3 1 5 -13 5 -14 0 -19 -2 -12 -5z"/>
<path d="M4988 3 c6 -2 18 -2 25 0 6 3 1 5 -13 5 -14 0 -19 -2 -12 -5z"/>
<path d="M5068 3 c7 -3 16 -2 19 1 4 3 -2 6 -13 5 -11 0 -14 -3 -6 -6z"/>
<path d="M5108 3 c7 -3 16 -2 19 1 4 3 -2 6 -13 5 -11 0 -14 -3 -6 -6z"/>
<path d="M5148 3 c6 -2 18 -2 25 0 6 3 1 5 -13 5 -14 0 -19 -2 -12 -5z"/>
<path d="M5218 3 c6 -2 18 -2 25 0 6 3 1 5 -13 5 -14 0 -19 -2 -12 -5z"/>
<path d="M5388 3 c6 -2 18 -2 25 0 6 3 1 5 -13 5 -14 0 -19 -2 -12 -5z"/>
<path d="M5458 3 c6 -2 18 -2 25 0 6 3 1 5 -13 5 -14 0 -19 -2 -12 -5z"/>
<path d="M5628 3 c6 -2 18 -2 25 0 6 3 1 5 -13 5 -14 0 -19 -2 -12 -5z"/>
<path d="M5708 3 c7 -3 16 -2 19 1 4 3 -2 6 -13 5 -11 0 -14 -3 -6 -6z"/>
<path d="M5748 3 c7 -3 16 -2 19 1 4 3 -2 6 -13 5 -11 0 -14 -3 -6 -6z"/>
<path d="M5788 3 c6 -2 18 -2 25 0 6 3 1 5 -13 5 -14 0 -19 -2 -12 -5z"/>
<path d="M5858 3 c6 -2 18 -2 25 0 6 3 1 5 -13 5 -14 0 -19 -2 -12 -5z"/>
<path d="M6028 3 c6 -2 18 -2 25 0 6 3 1 5 -13 5 -14 0 -19 -2 -12 -5z"/>
<path d="M6098 3 c6 -2 18 -2 25 0 6 3 1 5 -13 5 -14 0 -19 -2 -12 -5z"/>
<path d="M6268 3 c6 -2 18 -2 25 0 6 3 1 5 -13 5 -14 0 -19 -2 -12 -5z"/>
<path d="M6348 3 c7 -3 16 -2 19 1 4 3 -2 6 -13 5 -11 0 -14 -3 -6 -6z"/>
<path d="M6388 3 c6 -2 18 -2 25 0 6 3 1 5 -13 5 -14 0 -19 -2 -12 -5z"/>
<path d="M6468 3 c6 -2 18 -2 25 0 6 3 1 5 -13 5 -14 0 -19 -2 -12 -5z"/>
<path d="M6548 3 c6 -2 18 -2 25 0 6 3 1 5 -13 5 -14 0 -19 -2 -12 -5z"/>
<path d="M6628 3 c6 -2 18 -2 25 0 6 3 1 5 -13 5 -14 0 -19 -2 -12 -5z"/>
<path d="M6708 3 c6 -2 18 -2 25 0 6 3 1 5 -13 5 -14 0 -19 -2 -12 -5z"/>
<path d="M6788 3 c6 -2 18 -2 25 0 6 3 1 5 -13 5 -14 0 -19 -2 -12 -5z"/>
<path d="M6868 3 c6 -2 18 -2 25 0 6 3 1 5 -13 5 -14 0 -19 -2 -12 -5z"/>
</g>
</svg>
